<svg class="meca-anim" xmlns="http://www.w3.org/2000/svg" width="1000" height="1000" viewBox="20 0 400 300"><path d="M113.402 70.282c0-1.021-.079-2.023-.153-3.026 4.004-1.28 7.161-2.502 9.205-3.592l-.734-4.128c-2.295-.33-5.679-.407-9.878-.252-.557-1.965-1.252-3.866-2.085-5.697 3.315-2.558 5.857-4.775 7.4-6.49l-2.112-3.629c-2.272.468-5.481 1.545-9.376 3.117-1.194-1.644-2.492-3.205-3.913-4.652 2.231-3.527 3.855-6.471 4.713-8.605l-3.237-2.695c-1.968 1.207-4.603 3.301-7.711 6.089-1.679-1.137-3.465-2.121-5.31-3.004.884-4.08 1.395-7.403 1.465-9.704l-3.97-1.432c-1.437 1.807-3.197 4.68-5.165 8.37-1.958-.493-3.955-.887-6.014-1.089-.574-4.117-1.236-7.401-1.961-9.58h-4.225c-.724 2.179-1.387 5.464-1.962 9.579-2.059.201-4.056.596-6.013 1.089-1.968-3.69-3.728-6.563-5.165-8.37l-3.97 1.432c.069 2.3.583 5.624 1.465 9.704-1.846.883-3.631 1.867-5.31 3.004-3.109-2.788-5.744-4.882-7.712-6.089l-3.236 2.694c.859 2.134 2.482 5.078 4.714 8.605-1.423 1.447-2.72 3.008-3.913 4.652-3.897-1.572-7.105-2.649-9.377-3.117l-2.111 3.629c1.542 1.715 4.084 3.931 7.4 6.49-.835 1.831-1.53 3.732-2.085 5.697-4.2-.154-7.584-.078-9.878.252l-.733 4.129c2.044 1.09 5.2 2.311 9.204 3.592-.074 1.004-.153 2.006-.153 3.027 0 1.021.079 2.023.153 3.025-4.004 1.282-7.161 2.503-9.204 3.594l.733 4.128c2.295.33 5.679.407 9.878.252.555 1.965 1.251 3.866 2.085 5.697-3.316 2.558-5.857 4.774-7.4 6.49l2.111 3.629c2.272-.468 5.481-1.545 9.377-3.117 1.193 1.644 2.491 3.204 3.913 4.651-2.232 3.528-3.855 6.472-4.714 8.607l3.236 2.693c1.969-1.206 4.604-3.3 7.712-6.089 1.678 1.139 3.464 2.121 5.31 3.004-.884 4.08-1.396 7.403-1.465 9.703l3.97 1.433c1.437-1.806 3.197-4.679 5.165-8.37 1.957.494 3.954.889 6.013 1.09.575 4.117 1.238 7.4 1.962 9.579h4.225c.725-2.179 1.387-5.463 1.962-9.579 2.059-.201 4.056-.596 6.014-1.09 1.968 3.691 3.728 6.564 5.165 8.37l3.97-1.433c-.07-2.3-.583-5.623-1.465-9.703 1.845-.883 3.63-1.866 5.31-3.004 3.108 2.789 5.744 4.882 7.711 6.089l3.236-2.693c-.858-2.135-2.482-5.079-4.713-8.607 1.421-1.447 2.719-3.007 3.913-4.651 3.896 1.572 7.104 2.649 9.376 3.117l2.112-3.629c-1.542-1.716-4.085-3.931-7.4-6.49.834-1.831 1.529-3.732 2.085-5.697 4.199.154 7.583.078 9.878-.252l.734-4.128c-2.045-1.091-5.201-2.311-9.205-3.593.073-1.003.153-2.005.153-3.026zm-25.357-24.306c2.459-2.441 6.449-2.441 8.908 0 2.461 2.441 2.461 6.398 0 8.839-2.459 2.442-6.449 2.442-8.908 0-2.461-2.441-2.461-6.398 0-8.839zm-15.59-10.069c3.48 0 6.3 2.799 6.3 6.25s-2.82 6.25-6.3 6.25-6.3-2.799-6.3-6.25 2.82-6.25 6.3-6.25zm-24.501 10.069c2.459-2.441 6.449-2.441 8.909 0 2.461 2.441 2.459 6.398 0 8.839-2.459 2.442-6.449 2.442-8.909 0-2.461-2.441-2.461-6.398 0-8.839zm-10.149 24.306c0-3.452 2.82-6.25 6.3-6.25s6.3 2.798 6.3 6.25-2.82 6.25-6.3 6.25-6.3-2.798-6.3-6.25zm19.059 24.306c-2.459 2.442-6.449 2.442-8.909 0-2.459-2.441-2.459-6.398 0-8.838 2.459-2.442 6.449-2.442 8.909 0 2.459 2.44 2.461 6.397 0 8.838zm15.592 10.069c-3.48 0-6.3-2.799-6.3-6.25 0-3.452 2.82-6.25 6.3-6.25s6.3 2.798 6.3 6.25c-.001 3.451-2.821 6.25-6.3 6.25zm0-18.75c-8.699 0-15.75-6.996-15.75-15.625s7.052-15.625 15.75-15.625 15.749 6.996 15.749 15.625-7.051 15.625-15.749 15.625zm24.499 8.681c-2.459 2.442-6.449 2.442-8.908 0-2.461-2.441-2.461-6.398 0-8.838 2.459-2.442 6.449-2.442 8.908 0 2.462 2.44 2.462 6.397 0 8.838zm3.85-18.056c-3.479 0-6.3-2.798-6.3-6.25s2.821-6.25 6.3-6.25c3.48 0 6.3 2.798 6.3 6.25s-2.82 6.25-6.3 6.25z"><animateTransform attributeName="transform" type="rotate" from="0 72 70" to="360 72 70" dur="10s" repeatCount="indefinite"/></path><path d="M208.821 78.396c0-1.024-.079-2.028-.153-3.033 3.999-1.278 7.166-2.497 9.205-3.584l-.733-4.128c-2.29-.329-5.683-.401-9.876-.246-.557-1.969-1.253-3.874-2.091-5.708 3.311-2.554 5.863-4.771 7.402-6.484l-2.111-3.629c-2.267.468-5.482 1.553-9.372 3.123-1.196-1.648-2.497-3.212-3.923-4.662 2.229-3.522 3.861-6.47 4.718-8.601l-3.235-2.694c-1.965 1.205-4.603 3.307-7.707 6.093-1.681-1.141-3.471-2.126-5.32-3.011.883-4.075 1.402-7.404 1.472-9.701l-3.97-1.432c-1.434 1.803-3.194 4.686-5.158 8.371-1.962-.495-3.963-.89-6.026-1.091-.576-4.112-1.233-7.405-1.958-9.58h-4.224c-.724 2.175-1.382 5.468-1.956 9.579-2.062.202-4.065.597-6.026 1.091-1.965-3.684-3.724-6.568-5.158-8.371l-3.97 1.432c.069 2.297.589 5.626 1.472 9.701-1.849.885-3.639 1.871-5.321 3.011-3.103-2.785-5.743-4.888-7.706-6.093l-3.235 2.694c.855 2.13 2.49 5.078 4.718 8.601-1.425 1.45-2.726 3.015-3.923 4.662-3.89-1.57-7.105-2.655-9.372-3.123l-2.112 3.629c1.541 1.714 4.092 3.929 7.402 6.484-.836 1.835-1.532 3.741-2.09 5.708-4.194-.154-7.586-.083-9.876.246l-.733 4.128c2.04 1.087 5.206 2.307 9.205 3.584-.075 1.006-.155 2.01-.155 3.034 0 1.023.079 2.028.154 3.033-3.998 1.278-7.165 2.497-9.204 3.586l.733 4.128c2.29.329 5.682.401 9.876.246.557 1.969 1.253 3.874 2.09 5.708-3.311 2.554-5.862 4.771-7.402 6.484l2.112 3.629c2.267-.467 5.482-1.552 9.372-3.123 1.196 1.648 2.497 3.213 3.923 4.663-2.23 3.522-3.862 6.47-4.718 8.601l3.235 2.693c1.965-1.204 4.603-3.308 7.706-6.093 1.682 1.141 3.472 2.125 5.321 3.011-.883 4.074-1.403 7.404-1.472 9.7l3.97 1.433c1.434-1.803 3.194-4.686 5.158-8.372 1.961.495 3.963.89 6.026 1.093.574 4.11 1.232 7.403 1.956 9.578h4.224c.724-2.175 1.382-5.468 1.956-9.578 2.062-.202 4.064-.598 6.026-1.093 1.964 3.685 3.724 6.569 5.158 8.372l3.97-1.433c-.07-2.296-.589-5.626-1.472-9.7 1.849-.886 3.639-1.871 5.321-3.011 3.103 2.784 5.743 4.888 7.706 6.093l3.235-2.693c-.856-2.131-2.49-5.079-4.718-8.601 1.425-1.45 2.726-3.016 3.923-4.663 3.89 1.571 7.105 2.656 9.372 3.123l2.111-3.629c-1.54-1.714-4.092-3.929-7.402-6.484.837-1.835 1.533-3.741 2.091-5.708 4.193.154 7.586.083 9.876-.246l.734-4.128c-2.04-1.089-5.206-2.307-9.205-3.584.074-1.006.154-2.011.154-3.034zm-37.824-30.996c0-1.765 1.621-3.082 3.354-2.751 7.738 1.477 14.548 5.552 19.503 11.28 1.151 1.331.81 3.391-.715 4.271l-.677.391c-1.142.659-2.551.353-3.417-.641-4.01-4.601-9.477-7.893-15.687-9.128-1.348-.27-2.361-1.381-2.361-2.757v-.665zm-29.107 8.529c4.956-5.729 11.765-9.802 19.504-11.28 1.731-.331 3.353.986 3.353 2.751v.666c0 1.376-1.014 2.487-2.362 2.756-6.209 1.235-11.677 4.528-15.686 9.129-.866.994-2.276 1.299-3.417.64l-.678-.391c-1.524-.88-1.865-2.94-.714-4.271zm-1.931 34.975l-.483.279c-1.521.877-3.47.152-4.052-1.504-1.239-3.534-1.926-7.326-1.926-11.283 0-3.958.687-7.748 1.927-11.282.582-1.657 2.531-2.382 4.052-1.504l.483.279c1.169.675 1.772 2.083 1.329 3.359-.995 2.869-1.542 5.944-1.542 9.148 0 3.204.547 6.279 1.541 9.149.443 1.276-.16 2.683-1.329 3.359zm24.788 18.488c0 1.764-1.622 3.082-3.354 2.752-7.738-1.478-14.548-5.552-19.504-11.28-1.15-1.331-.809-3.391.715-4.271l.678-.392c1.142-.658 2.551-.353 3.417.641 4.009 4.601 9.477 7.894 15.686 9.13 1.349.268 2.362 1.379 2.362 2.754v.666zm3.125-13.19c-9.833 0-17.806-7.972-17.806-17.806s7.973-17.806 17.806-17.806c9.833 0 17.806 7.973 17.806 17.806 0 9.833-7.973 17.806-17.806 17.806zm25.981 4.66c-4.955 5.728-11.764 9.802-19.503 11.28-1.732.331-3.353-.988-3.353-2.751v-.666c0-1.375 1.014-2.486 2.361-2.755 6.21-1.236 11.677-4.529 15.687-9.13.866-.994 2.276-1.299 3.417-.64l.678.391c1.524.88 1.865 2.94.712 4.271zm6.466-11.184c-.581 1.657-2.53 2.381-4.051 1.504l-.483-.279c-1.169-.675-1.772-2.083-1.33-3.359.996-2.869 1.543-5.944 1.543-9.148 0-3.204-.547-6.279-1.542-9.149-.442-1.276.161-2.683 1.33-3.359l.483-.279c1.521-.878 3.47-.152 4.051 1.504 1.24 3.535 1.927 7.325 1.927 11.283 0 3.957-.687 7.749-1.928 11.282z"><animateTransform attributeName="transform" type="rotate" from="0 168 79" to="-360 168 79" dur="10s" repeatCount="indefinite"/></path><path d="M200.975 173.176c0-1.024-.079-2.028-.154-3.033 4-1.278 7.167-2.497 9.206-3.584l-.733-4.128c-2.29-.329-5.683-.401-9.876-.246-.557-1.969-1.253-3.874-2.09-5.708 3.31-2.554 5.862-4.771 7.401-6.484l-2.111-3.629c-2.267.468-5.482 1.553-9.372 3.123-1.196-1.648-2.497-3.213-3.924-4.663 2.23-3.522 3.864-6.47 4.719-8.601l-3.235-2.694c-1.965 1.205-4.603 3.307-7.706 6.093-1.682-1.141-3.472-2.126-5.321-3.011.883-4.075 1.403-7.404 1.472-9.701l-3.97-1.432c-1.434 1.803-3.194 4.686-5.158 8.371-1.962-.495-3.962-.89-6.026-1.091-.576-4.112-1.233-7.405-1.958-9.58h-4.224c-.724 2.175-1.382 5.468-1.956 9.579-2.064.202-4.065.597-6.026 1.091-1.965-3.684-3.724-6.568-5.158-8.371l-3.97 1.432c.069 2.297.589 5.626 1.472 9.701-1.849.885-3.639 1.871-5.321 3.011-3.103-2.785-5.743-4.888-7.706-6.093l-3.235 2.694c.855 2.13 2.49 5.078 4.718 8.601-1.425 1.45-2.726 3.015-3.923 4.662-3.89-1.57-7.105-2.655-9.373-3.123l-2.112 3.629c1.541 1.714 4.093 3.929 7.402 6.484-.836 1.835-1.532 3.741-2.09 5.708-4.194-.154-7.586-.083-9.876.246l-.732 4.128c2.04 1.087 5.206 2.307 9.205 3.584-.074 1.006-.154 2.01-.154 3.034 0 1.023.079 2.028.153 3.033-3.998 1.278-7.165 2.497-9.204 3.585l.733 4.128c2.29.329 5.683.401 9.876.246.557 1.969 1.253 3.874 2.09 5.708-3.31 2.554-5.862 4.771-7.402 6.484l2.112 3.629c2.267-.467 5.482-1.552 9.373-3.123 1.196 1.648 2.497 3.214 3.923 4.664-2.229 3.522-3.862 6.47-4.718 8.601l3.235 2.693c1.965-1.204 4.603-3.308 7.706-6.093 1.682 1.141 3.472 2.125 5.321 3.011-.884 4.074-1.403 7.404-1.472 9.7l3.97 1.433c1.434-1.803 3.194-4.686 5.158-8.372 1.961.495 3.962.89 6.026 1.093.574 4.11 1.232 7.403 1.956 9.578h4.224c.724-2.175 1.382-5.468 1.956-9.578 2.064-.202 4.064-.598 6.026-1.093 1.964 3.685 3.724 6.569 5.158 8.372l3.97-1.433c-.069-2.296-.589-5.626-1.472-9.7 1.849-.886 3.639-1.871 5.321-3.011 3.103 2.784 5.743 4.888 7.706 6.093l3.235-2.693c-.855-2.131-2.49-5.079-4.718-8.601 1.425-1.45 2.726-3.016 3.923-4.664 3.89 1.571 7.105 2.656 9.372 3.123l2.111-3.629c-1.54-1.714-4.092-3.929-7.401-6.484.836-1.835 1.532-3.741 2.09-5.708 4.193.154 7.586.083 9.876-.246l.733-4.128c-2.04-1.089-5.206-2.307-9.206-3.584.075-1.006.155-2.011.155-3.034zm-40.949-34.375c17.93 0 32.648 13.731 34.227 31.25h-18.918c-1.448-7.132-7.75-12.5-15.309-12.5-1.276 0-2.496.196-3.683.483l-9.573-16.58c4.079-1.707 8.556-2.653 13.256-2.653zm6.25 34.375c0 3.452-2.799 6.25-6.25 6.25-3.452 0-6.25-2.798-6.25-6.25s2.798-6.25 6.25-6.25c3.451 0 6.25 2.798 6.25 6.25zm-40.625 0c0-12.053 6.208-22.651 15.598-28.788l9.431 16.335c-3.792 2.851-6.279 7.344-6.279 12.452s2.487 9.601 6.278 12.452l-9.432 16.335c-9.387-6.138-15.596-16.735-15.596-28.788zm34.375 34.375c-4.699 0-9.177-.946-13.257-2.653l9.573-16.58c1.189.287 2.408.483 3.684.483 7.559 0 13.862-5.368 15.309-12.5h18.918c-1.58 17.519-16.297 31.25-34.227 31.25z"><animateTransform attributeName="transform" type="rotate" from="0 160 174" to="360 160 174" dur="10s" repeatCount="indefinite"/></path><path d="M268.974 240.813c0-1.024-.079-2.028-.154-3.033 4-1.278 7.167-2.497 9.206-3.584l-.733-4.128c-2.29-.329-5.683-.401-9.876-.246-.557-1.969-1.253-3.874-2.09-5.708 3.31-2.554 5.862-4.771 7.401-6.484l-2.111-3.629c-2.267.468-5.482 1.553-9.373 3.123-1.195-1.648-2.496-3.212-3.923-4.662 2.23-3.522 3.864-6.47 4.719-8.601l-3.235-2.694c-1.965 1.205-4.603 3.307-7.706 6.093-1.682-1.141-3.472-2.126-5.321-3.011.883-4.075 1.403-7.404 1.472-9.701l-3.97-1.432c-1.434 1.803-3.194 4.686-5.158 8.371-1.962-.495-3.962-.89-6.027-1.091-.575-4.112-1.232-7.405-1.957-9.58h-4.224c-.724 2.175-1.382 5.468-1.956 9.579-2.064.202-4.064.597-6.027 1.091-1.964-3.684-3.723-6.568-5.157-8.371l-3.97 1.432c.069 2.297.589 5.626 1.472 9.701-1.849.885-3.639 1.871-5.321 3.011-3.103-2.785-5.743-4.888-7.706-6.093l-3.235 2.694c.855 2.13 2.49 5.078 4.718 8.601-1.425 1.45-2.726 3.015-3.923 4.662-3.89-1.57-7.105-2.655-9.373-3.123l-2.112 3.629c1.541 1.714 4.093 3.929 7.402 6.484-.836 1.835-1.532 3.741-2.09 5.708-4.194-.154-7.586-.083-9.876.246l-.732 4.128c2.04 1.087 5.206 2.307 9.205 3.584-.074 1.006-.154 2.01-.154 3.034 0 1.023.079 2.028.153 3.033-3.998 1.278-7.165 2.497-9.204 3.585l.733 4.128c2.29.329 5.683.401 9.876.246.557 1.969 1.253 3.874 2.09 5.708-3.31 2.554-5.862 4.771-7.402 6.484l2.112 3.629c2.267-.467 5.482-1.552 9.373-3.123 1.196 1.648 2.497 3.214 3.923 4.664-2.229 3.522-3.862 6.47-4.718 8.601l3.235 2.693c1.965-1.204 4.603-3.308 7.706-6.093 1.682 1.141 3.472 2.125 5.321 3.011-.884 4.074-1.403 7.404-1.472 9.7l3.97 1.433c1.434-1.803 3.194-4.686 5.157-8.372 1.964.495 3.963.89 6.027 1.093.574 4.11 1.232 7.403 1.956 9.578h4.224c.724-2.175 1.382-5.468 1.955-9.578 2.065-.202 4.065-.598 6.027-1.093 1.964 3.685 3.724 6.569 5.158 8.372l3.97-1.433c-.069-2.296-.587-5.626-1.472-9.7 1.849-.886 3.639-1.871 5.321-3.011 3.103 2.784 5.743 4.888 7.706 6.093l3.235-2.693c-.855-2.131-2.49-5.079-4.718-8.601 1.425-1.45 2.726-3.016 3.922-4.664 3.891 1.571 7.106 2.656 9.373 3.123l2.111-3.629c-1.54-1.714-4.092-3.929-7.401-6.484.836-1.835 1.532-3.741 2.09-5.708 4.193.154 7.586.083 9.876-.246l.733-4.128c-2.04-1.089-5.206-2.307-9.206-3.584.075-1.006.155-2.011.155-3.034zm-40.949 34.375c-18.985 0-34.375-15.391-34.375-34.375 0-18.985 15.389-34.375 34.375-34.375 18.984 0 34.375 15.39 34.375 34.375 0 18.984-15.39 34.375-34.375 34.375z"><animateTransform attributeName="transform" type="rotate" from="0 228 241" to="-360 228 241" dur="10s" repeatCount="indefinite"/></path><path d="M336.653 173.351c0-1.024-.079-2.028-.154-3.033 4-1.278 7.167-2.497 9.206-3.584l-.733-4.128c-2.29-.329-5.683-.401-9.876-.246-.557-1.969-1.253-3.874-2.09-5.708 3.31-2.554 5.862-4.771 7.401-6.484l-2.111-3.629c-2.267.468-5.482 1.553-9.372 3.123-1.196-1.648-2.497-3.212-3.924-4.662 2.23-3.522 3.864-6.47 4.719-8.601l-3.235-2.694c-1.965 1.205-4.603 3.307-7.706 6.093-1.682-1.141-3.472-2.126-5.321-3.011.883-4.075 1.403-7.404 1.472-9.701l-3.97-1.432c-1.434 1.803-3.194 4.686-5.158 8.371-1.962-.495-3.962-.89-6.027-1.091-.575-4.112-1.232-7.405-1.957-9.58h-4.224c-.724 2.175-1.382 5.468-1.956 9.579-2.064.202-4.063.597-6.027 1.091-1.964-3.684-3.723-6.568-5.157-8.371l-3.97 1.432c.069 2.297.589 5.626 1.472 9.701-1.849.885-3.639 1.871-5.321 3.011-3.103-2.785-5.743-4.888-7.706-6.093l-3.235 2.694c.855 2.13 2.49 5.078 4.718 8.601-1.425 1.45-2.726 3.015-3.923 4.662-3.89-1.57-7.105-2.655-9.373-3.123l-2.112 3.629c1.541 1.714 4.093 3.929 7.402 6.484-.836 1.835-1.532 3.741-2.09 5.708-4.194-.154-7.586-.083-9.876.246l-.732 4.128c2.04 1.087 5.206 2.307 9.205 3.584-.074 1.006-.154 2.01-.154 3.034 0 1.023.079 2.028.153 3.033-3.998 1.278-7.165 2.497-9.204 3.585l.733 4.128c2.29.329 5.683.401 9.876.246.557 1.969 1.253 3.874 2.09 5.708-3.31 2.554-5.862 4.771-7.402 6.484l2.112 3.629c2.267-.467 5.482-1.552 9.373-3.123 1.196 1.648 2.497 3.213 3.923 4.663-2.229 3.522-3.862 6.47-4.718 8.601l3.235 2.693c1.965-1.204 4.603-3.308 7.706-6.093 1.682 1.141 3.472 2.125 5.321 3.011-.884 4.074-1.403 7.404-1.472 9.7l3.97 1.433c1.434-1.803 3.194-4.686 5.157-8.372 1.964.495 3.963.889 6.027 1.093.574 4.11 1.232 7.403 1.956 9.578h4.224c.724-2.175 1.382-5.468 1.955-9.578 2.065-.202 4.065-.598 6.027-1.093 1.964 3.685 3.724 6.569 5.158 8.372l3.97-1.433c-.069-2.296-.587-5.626-1.472-9.7 1.849-.886 3.639-1.871 5.321-3.011 3.103 2.784 5.743 4.888 7.706 6.093l3.235-2.693c-.855-2.131-2.49-5.079-4.718-8.601 1.425-1.45 2.726-3.016 3.923-4.663 3.89 1.571 7.105 2.656 9.372 3.123l2.111-3.629c-1.54-1.714-4.092-3.929-7.401-6.484.836-1.835 1.532-3.741 2.09-5.708 4.193.154 7.586.083 9.876-.246l.733-4.128c-2.04-1.089-5.206-2.307-9.206-3.584.075-1.006.155-2.011.155-3.034zm-40.949 34.375c-18.985 0-34.375-15.391-34.375-34.375 0-18.985 15.389-34.375 34.375-34.375 18.984 0 34.375 15.39 34.375 34.375 0 18.984-15.39 34.375-34.375 34.375zm0-56.25c-12.081 0-21.875 9.794-21.875 21.875s9.794 21.875 21.875 21.875 21.875-9.794 21.875-21.875-9.794-21.875-21.875-21.875zm0 31.25c-5.178 0-9.375-4.197-9.375-9.375s4.197-9.375 9.375-9.375 9.375 4.197 9.375 9.375-4.197 9.375-9.375 9.375z"><animateTransform attributeName="transform" type="rotate" from="0 296 174" to="360 296 174" dur="10s" repeatCount="indefinite"/></path><path d="M405.016 240.418c0-1.024-.079-2.028-.153-3.033 3.999-1.278 7.166-2.497 9.205-3.584l-.733-4.128c-2.29-.329-5.683-.401-9.876-.246-.557-1.969-1.253-3.874-2.091-5.708 3.311-2.554 5.863-4.771 7.402-6.484l-2.111-3.629c-2.267.468-5.482 1.553-9.372 3.123-1.196-1.648-2.497-3.212-3.924-4.662 2.23-3.522 3.864-6.47 4.719-8.601l-3.235-2.694c-1.965 1.205-4.603 3.307-7.707 6.093-1.681-1.141-3.471-2.126-5.32-3.011.883-4.075 1.402-7.404 1.472-9.701l-3.97-1.432c-1.434 1.803-3.194 4.686-5.158 8.371-1.962-.495-3.963-.89-6.026-1.091-.576-4.112-1.233-7.405-1.958-9.58h-4.224c-.724 2.175-1.382 5.468-1.956 9.579-2.062.202-4.065.597-6.026 1.091-1.965-3.684-3.724-6.568-5.158-8.371l-3.97 1.432c.069 2.297.589 5.626 1.472 9.701-1.849.885-3.639 1.871-5.321 3.011-3.103-2.785-5.743-4.888-7.706-6.093l-3.235 2.694c.855 2.13 2.49 5.078 4.718 8.601-1.426 1.45-2.726 3.015-3.923 4.662-3.89-1.57-7.105-2.655-9.372-3.123l-2.112 3.629c1.541 1.714 4.092 3.929 7.402 6.484-.836 1.835-1.532 3.741-2.09 5.708-4.194-.154-7.586-.083-9.876.246l-.733 4.128c2.04 1.087 5.206 2.307 9.205 3.584-.075 1.006-.155 2.01-.155 3.034 0 1.023.079 2.028.154 3.033-3.998 1.278-7.165 2.497-9.204 3.585l.733 4.128c2.29.329 5.682.401 9.876.246.557 1.969 1.253 3.874 2.09 5.708-3.311 2.554-5.862 4.771-7.402 6.484l2.112 3.629c2.267-.467 5.482-1.552 9.372-3.123 1.196 1.648 2.496 3.214 3.923 4.664-2.23 3.522-3.862 6.47-4.718 8.601l3.235 2.693c1.965-1.204 4.603-3.308 7.706-6.093 1.682 1.141 3.472 2.125 5.321 3.011-.883 4.074-1.403 7.404-1.472 9.7l3.97 1.433c1.434-1.803 3.194-4.686 5.158-8.372 1.961.495 3.963.89 6.026 1.093.574 4.11 1.232 7.403 1.956 9.578h4.224c.724-2.175 1.382-5.468 1.956-9.578 2.062-.202 4.064-.598 6.026-1.093 1.964 3.685 3.724 6.569 5.158 8.372l3.97-1.433c-.07-2.296-.589-5.626-1.472-9.7 1.849-.886 3.639-1.871 5.321-3.011 3.103 2.784 5.743 4.888 7.706 6.093l3.235-2.693c-.855-2.131-2.49-5.079-4.718-8.601 1.425-1.45 2.726-3.016 3.923-4.664 3.89 1.571 7.105 2.656 9.372 3.123l2.111-3.629c-1.54-1.714-4.092-3.929-7.402-6.484.837-1.835 1.533-3.741 2.091-5.708 4.193.154 7.586.083 9.876-.246l.734-4.128c-2.04-1.089-5.206-2.307-9.205-3.584.074-1.006.154-2.011.154-3.034zm-40.949-34.375c17.93 0 32.636 13.732 34.217 31.25h-6.275c-1.557-14.06-13.468-25-27.942-25-3.559 0-6.951.689-10.085 1.895l-3.17-5.49c4.079-1.707 8.556-2.655 13.255-2.655zm-21.875 34.375c0-7.411 3.713-13.963 9.37-17.922l3.157 5.47c-3.79 2.851-6.277 7.344-6.277 12.452s2.487 9.601 6.277 12.452l-3.157 5.47c-5.656-3.959-9.37-10.51-9.37-17.922zm18.191 15.142c1.186.287 2.407.483 3.683.483 7.559 0 13.862-5.368 15.309-12.5h6.316c-1.524 10.582-10.626 18.75-21.625 18.75-2.418 0-4.738-.41-6.915-1.137l3.231-5.596zm-2.567-15.142c0-3.452 2.798-6.25 6.25-6.25 3.451 0 6.25 2.798 6.25 6.25s-2.799 6.25-6.25 6.25c-3.452 0-6.25-2.798-6.25-6.25zm21.559-3.125c-1.448-7.132-7.75-12.5-15.309-12.5-1.276 0-2.497.196-3.683.483l-3.231-5.596c2.176-.727 4.497-1.137 6.915-1.137 10.999 0 20.101 8.167 21.626 18.75h-6.317zm-49.684 3.125c0-12.052 6.216-22.64 15.603-28.776l3.123 5.408c-7.523 5.048-12.476 13.627-12.476 23.368 0 9.741 4.953 18.321 12.476 23.369l-3.123 5.407c-9.387-6.136-15.603-16.724-15.603-28.776zm34.375 34.375c-4.699 0-9.176-.948-13.255-2.655l3.17-5.49c3.134 1.206 6.526 1.895 10.085 1.895 14.475 0 26.385-10.94 27.941-25h6.275c-1.58 17.518-16.286 31.25-34.216 31.25z"><animateTransform attributeName="transform" type="rotate" from="0 364 241" to="-360 364 241" dur="10s" repeatCount="indefinite"/></path><path d="M398.477 143.354c-.384-2.708-1.194-5.399-2.476-7.981l.737-.739c2.588-2.656 4.75-5.011 5.504-6.479l-3.906-5.066c-1.466.331-3.989 1.619-6.829 3.213-.547.307-1.126.648-1.71.991-1.98-1.733-4.184-3.147-6.539-4.198.057-.682.11-1.358.149-1.99.202-3.287.172-5.967-.162-7.454l-6.071-1.272c-.9 1.206-1.97 3.538-3.107 6.614-.217.587-.438 1.221-.66 1.861-2.551-.062-5.126.261-7.645.996-.389-.559-.776-1.113-1.146-1.623-1.941-2.676-3.493-4.554-4.693-5.487l-5.582 2.93c.086 1.518.751 3.861 1.85 6.98.21.594.445 1.228.684 1.865-2.034 1.656-3.764 3.591-5.162 5.726-.653-.181-1.299-.359-1.907-.514-3.177-.812-5.703-1.256-7.208-1.2l-2.39 5.679c1.032 1.119 3.212 2.706 6.031 4.408.542.327 1.13.667 1.722 1.008-.474 2.536-.562 5.153-.259 7.766-.615.286-1.225.57-1.789.846-2.924 1.433-5.39 2.919-6.494 3.937l1.839 5.761c1.635.215 4.885-.039 8.542-.661l1.026-.186c1.396 2.523 3.151 4.717 5.161 6.572l-.056.128c-1.082 2.513-2.298 5.369-3.6 8.413l5.29 3.276c2.153-2.496 4.121-4.754 5.894-6.823l.081-.095c2.74 1.143 5.66 1.794 8.626 1.942l.039.13c.782 2.648 1.586 5.274 2.54 8.476l6.193-.872c.041-3.329.092-5.997.117-8.749l.001-.142c1.381-.44 2.749-.981 4.075-1.678 1.326-.696 2.548-1.515 3.695-2.401l.118.08c2.279 1.543 4.503 3.016 7.266 4.873l4.236-4.601c-2.092-2.604-3.797-4.757-5.532-6.905l-.086-.106c1.564-2.526 2.686-5.298 3.302-8.203l.125-.013c2.71-.285 5.683-.61 8.959-.965l.309-6.233c-1.842-.374-4.881-.992-8.965-1.81l-.136-.025zm-17.345 18.584c-8.437 4.428-18.873 1.165-23.31-7.288-4.437-8.453-1.194-18.896 7.242-23.324 8.437-4.428 18.873-1.165 23.31 7.288 4.437 8.453 1.194 18.896-7.242 23.324z"><animateTransform attributeName="transform" type="rotate" from="0 373 147" to="-360 373 147" dur="5s" repeatCount="indefinite" id="animateTransform31"/></path><path d="M396.68 72.332c.11-1.01.14-2.01.175-3.01 4.099-.834 7.353-1.702 9.493-2.559l-.28-4.163c-2.234-.574-5.573-1.016-9.744-1.315-.339-2.003-.821-3.959-1.448-5.86 3.555-2.173 6.309-4.091 8.02-5.621l-1.698-3.818c-2.298.218-5.588.937-9.611 2.071-1.004-1.755-2.119-3.439-3.369-5.024 2.588-3.248 4.511-5.985 5.59-8.003l-2.911-3.015c-2.076.982-4.909 2.769-8.284 5.19-1.538-1.306-3.199-2.472-4.928-3.545 1.314-3.941 2.179-7.172 2.496-9.441l-3.772-1.845c-1.617 1.633-3.668 4.284-6.012 7.722-1.884-.699-3.816-1.305-5.832-1.726-.124-4.134-.424-7.454-.906-9.688l-4.179-.456c-.952 2.077-1.962 5.255-2.975 9.264-2.059-.023-4.076.152-6.065.428-1.548-3.862-2.979-6.894-4.206-8.836l-4.081.988c-.18 2.282-.031 5.626.402 9.757-1.921.675-3.793 1.455-5.576 2.399-2.774-3.093-5.155-5.449-6.971-6.855l-3.491 2.315c.619 2.204 1.907 5.291 3.734 9.021-1.563 1.278-3.015 2.682-4.373 4.179-3.685-1.975-6.742-3.387-8.939-4.095l-2.48 3.362c1.341 1.862 3.616 4.329 6.62 7.218-1.023 1.721-1.916 3.527-2.677 5.41-4.138-.606-7.493-.896-9.799-.817l-1.17 4.005c1.904 1.298 4.894 2.848 8.717 4.546-.181.985-.368 1.968-.478 2.978-.11 1.01-.14 2.01-.175 3.009-4.099.836-7.353 1.703-9.492 2.562l.279 4.162c2.234.574 5.573 1.016 9.744 1.315.337 2.003.82 3.959 1.448 5.86-3.556 2.173-6.308 4.09-8.02 5.621l1.697 3.818c2.298-.217 5.588-.937 9.612-2.071 1.003 1.755 2.118 3.438 3.369 5.023-2.589 3.249-4.511 5.986-5.591 8.005l2.91 3.013c2.077-.981 4.91-2.767 8.285-5.19 1.537 1.307 3.198 2.472 4.928 3.545-1.314 3.941-2.18 7.172-2.496 9.44l3.772 1.846c1.616-1.632 3.668-4.283 6.012-7.722 1.883.7 3.815 1.306 5.83 1.727.125 4.134.426 7.453.907 9.687l4.179.456c.953-2.077 1.962-5.254 2.975-9.264 2.059.023 4.076-.152 6.067-.429 1.548 3.863 2.979 6.895 4.206 8.836l4.081-.989c.179-2.283.03-5.625-.402-9.756 1.92-.675 3.792-1.454 5.576-2.399 2.773 3.094 5.155 5.449 6.97 6.855l3.491-2.314c-.618-2.205-1.907-5.292-3.733-9.022 1.562-1.278 3.014-2.681 4.373-4.178 3.684 1.975 6.741 3.387 8.938 4.095l2.481-3.362c-1.341-1.863-3.617-4.329-6.62-7.218 1.022-1.721 1.915-3.527 2.677-5.41 4.137.606 7.492.895 9.799.817l1.171-4.004c-1.905-1.299-4.896-2.848-8.718-4.547.18-.984.368-1.967.478-2.977zm-22.46-26.779c2.696-2.149 6.642-1.718 8.812.961 2.17 2.68 1.743 6.594-.954 8.743-2.696 2.15-6.642 1.719-8.812-.961-2.17-2.68-1.743-6.594.954-8.743zm-14.659-8.674c3.442.375 6.253.481 5.881 3.895-.372 3.414-3.14 2.91-6.582 2.535-3.442-.375-6.253-.481-5.881-3.895.372-3.414 3.14-2.91 6.582-2.535zm-24.998 4.348c2.696-2.149 6.642-1.718 8.813.961 2.17 2.68 1.742 6.594-.954 8.743-2.696 2.15-6.642 1.719-8.813-.961-2.17-2.68-1.743-6.594.954-8.743zm-9.693 23.271c.372-3.415.495-6.202 3.937-5.826 3.442.375 2.961 3.123 2.588 6.538-.372 3.415-.495 6.202-3.937 5.826-3.442-.375-2.961-3.123-2.588-6.538zm13.26 25.775c-2.696 2.15-6.642 1.719-8.813-.961-2.169-2.68-1.742-6.594.954-8.742 2.696-2.15 6.642-1.719 8.813.961 2.17 2.679 1.744 6.593-.954 8.742zm14.66 8.675c-3.442-.375-6.253-.481-5.881-3.895.372-3.415 3.14-2.91 6.582-2.535 3.442.375 6.253.48 5.881 3.895-.373 3.414-3.141 2.91-6.582 2.535zm1.7-15.579c-8.604-.939-14.824-8.62-13.893-17.155.931-8.536 8.662-14.695 17.265-13.756 8.603.939 14.823 8.619 13.892 17.155-.931 8.536-8.661 14.695-17.264 13.756zm23.296 11.231c-2.696 2.15-6.642 1.719-8.812-.961-2.17-2.68-1.743-6.594.954-8.742 2.696-2.15 6.642-1.719 8.812.961 2.172 2.679 1.745 6.593-.954 8.742zm5.756-17.445c-3.441-.375-2.961-3.123-2.588-6.538.372-3.415.496-6.202 3.937-5.826 3.442.375 2.961 3.123 2.588 6.538-.373 3.415-.495 6.202-3.937 5.826z"><animateTransform attributeName="transform" type="rotate" from="0 356 68" to="360 356 68" dur="10s" repeatCount="indefinite" id="animateTransform31"/></path><path d="M131.481 242.202c0-1.016-.079-2.013-.152-3.011 3.984-1.274 7.125-2.49 9.159-3.574l-.73-4.108c-2.283-.329-5.65-.405-9.829-.251-.554-1.955-1.245-3.846-2.075-5.669 3.299-2.546 5.828-4.751 7.363-6.457l-2.102-3.611c-2.261.465-5.453 1.537-9.33 3.101-1.188-1.636-2.479-3.189-3.894-4.629 2.22-3.51 3.836-6.439 4.689-8.562l-3.221-2.681c-1.958 1.201-4.58 3.285-7.672 6.058-1.671-1.132-3.448-2.11-5.283-2.989.879-4.06 1.388-7.366 1.458-9.656l-3.95-1.425c-1.43 1.798-3.181 4.657-5.139 8.328-1.948-.49-3.935-.883-5.984-1.083-.571-4.096-1.23-7.364-1.952-9.533h-4.204c-.721 2.168-1.38 5.436-1.953 9.532-2.049.2-4.036.593-5.983 1.083-1.958-3.671-3.709-6.53-5.139-8.328l-3.95 1.425c.069 2.289.58 5.596 1.458 9.656-1.836.879-3.613 1.857-5.283 2.989-3.093-2.774-5.716-4.858-7.673-6.058l-3.22 2.68c.854 2.124 2.47 5.053 4.69 8.562-1.415 1.44-2.706 2.993-3.894 4.629-3.877-1.564-7.07-2.636-9.331-3.101l-2.101 3.611c1.535 1.706 4.064 3.912 7.363 6.457-.831 1.822-1.522 3.714-2.075 5.669-4.179-.153-7.546-.078-9.829.251l-.729 4.109c2.033 1.084 5.174 2.3 9.158 3.574-.073.999-.153 1.996-.153 3.012s.079 2.013.153 3.01c-3.984 1.276-7.125 2.491-9.158 3.576l.729 4.108c2.283.329 5.65.405 9.829.251.553 1.955 1.244 3.846 2.075 5.669-3.3 2.546-5.828 4.75-7.363 6.457l2.101 3.611c2.261-.465 5.453-1.537 9.331-3.101 1.187 1.636 2.478 3.188 3.894 4.628-2.221 3.511-3.836 6.44-4.69 8.564l3.22 2.679c1.959-1.2 4.581-3.284 7.673-6.058 1.669 1.133 3.447 2.11 5.283 2.989-.879 4.06-1.39 7.366-1.458 9.655l3.95 1.426c1.43-1.797 3.181-4.656 5.139-8.328 1.947.491 3.934.884 5.983 1.084.572 4.096 1.232 7.363 1.953 9.532h4.204c.722-2.168 1.38-5.435 1.953-9.532 2.049-.2 4.036-.593 5.984-1.084 1.958 3.672 3.709 6.531 5.139 8.328l3.95-1.426c-.07-2.289-.58-5.595-1.458-9.655 1.835-.879 3.612-1.856 5.283-2.989 3.092 2.775 5.716 4.858 7.672 6.058l3.22-2.679c-.853-2.125-2.47-5.054-4.689-8.564 1.414-1.44 2.705-2.992 3.894-4.628 3.876 1.564 7.069 2.636 9.33 3.101l2.102-3.611c-1.535-1.707-4.065-3.912-7.363-6.457.83-1.822 1.521-3.714 2.075-5.669 4.178.153 7.545.078 9.829-.251l.73-4.108c-2.035-1.085-5.175-2.3-9.159-3.575.072-.998.152-1.995.152-3.011zm-40.744-34.204c3.462 0 6.268 2.785 6.268 6.219s-2.806 6.219-6.268 6.219c-3.462 0-6.268-2.785-6.268-6.219s2.806-6.219 6.268-6.219zm-34.478 34.204c0-3.435 2.806-6.219 6.268-6.219 3.462 0 6.268 2.784 6.268 6.219 0 3.435-2.806 6.219-6.268 6.219-3.462 0-6.268-2.784-6.268-6.219zm34.478 34.204c-3.462 0-6.268-2.785-6.268-6.219 0-3.435 2.806-6.219 6.268-6.219 3.462 0 6.268 2.784 6.268 6.219-.001 3.434-2.807 6.219-6.268 6.219zm0-18.657c-8.655 0-15.672-6.961-15.672-15.547s7.017-15.547 15.672-15.547c8.654 0 15.671 6.961 15.671 15.547s-7.016 15.547-15.671 15.547zm28.207-9.328c-3.461 0-6.268-2.784-6.268-6.219 0-3.435 2.807-6.219 6.268-6.219 3.462 0 6.268 2.784 6.268 6.219 0 3.435-2.806 6.219-6.268 6.219z"><animateTransform attributeName="transform" type="rotate" from="0 90 243" to="-360 90 243" dur="10s" repeatCount="indefinite"/></path></svg>