<svg xmlns="http://www.w3.org/2000/svg" width="1000" height="1000" viewBox="0 0 1000 1000" fill="#fff"><path d="M435.905 929.642l-1.712-5.678-2.037 5.678c-10.318 63.996-94.731 55.67-95.117-23.176l-1.377-7.927-2.077 3.895c-4.108 7.707-11.95 14.563-19.799 17.312-9.334 3.269-25.601 4.924-37.577 3.821-14.975-1.378-33.356-7.547-44.478-14.929-3.855-2.559-10.54-8.173-11.257-9.456-.994-1.775 1.187-4.651 4.126-5.443 50.969-11.697 59.218-21.935 68.259-61.879l.047-52.33.047-52.33c-66.836-4.279-148.873-7.288-152.892 67.334-1.663 7.122-2.076 7.927-4.06 7.927-1.719 0-3.195-1.568-6.866-7.293-16.236-42.038-39.831-90.444 5.299-119.193-67.067 6.616-87.572-82.607-25.967-104.644 3.251-1.545 5.49-2.928 4.975-3.073-120.641-41.035-84.726-131.902-5.838-139.41 2.522-.819 4.581-1.633 4.577-1.811-67.286-26.696-53.377-106.586 22.809-106.965.562-.168-.376-1.018-2.399-2.174-18.377-20.225-33.562-74.795 3.695-123.609 2.215 0 3.591 2.326 4.71 7.966 3.854 19.404 14.25 39.58 26.967 52.329 6.696 6.714 11.769 10.3 21.655 15.314 29.769 8.01 76.13 3.595 103.945 3.694v-105.246c-11.982-32.294-38.242-54.23-61.833-61.607-7.425-2.233-7.615-2.335-7.803-4.213-.161-1.614.299-2.358 2.854-4.611 30.968-25.209 96.073-25.756 111.69-.174.541 1.134 1.175 2.061 1.406 2.061.231 0 .765-2.497 1.185-5.549-7.8-61.674 65.176-82.193 92.373-28.379 1.812 3.837 3.673 8.046 4.134 9.354.461 1.308.995 2.378 1.186 2.376.191-.001 1.002-3.009 1.8-6.685 15.36-100.437 120.376-84.698 127.593 3.675.018 2.398 1.097.893 2.5-3.488 25.807-59.68 107.709-41.72 96.348 28.012l.432 2.169 2.471-4.225c32.094-28.381 80.218-23.009 108.01-.253 3.615 2.987 4.597 4.162 4.597 5.496 0 2.813-1.309 3.778-7.293 5.378-72.115 23.637-65.109 93.614-65.681 165.691 65.538 4.72 131.997 9.613 152.902-65.443 1.148-4.534 2.372-8.615 2.721-9.069.349-.453 1.372-.739 2.275-.634 1.257.146 2.499 1.448 5.322 5.581 18.471 32.931 28.594 79.983 6.323 111.787-1.214 1.664-4.078 4.36-6.364 5.992-2.286 1.631-3.898 3.041-3.583 3.132.315.091 4.204.891 8.641 1.776 77.387 7.902 76.77 77.887 18.566 101.864-4.031 2.077-6.963 3.89-6.517 4.03.446.139 3.463.99 6.703 1.889 100.265 21.933 97.804 112.032 1.401 136.708-2.965 1.071-5.818 2.103-6.342 2.295-.559.205 1.189 1.202 4.245 2.421 61.467 34.593 50.161 87.752-26.973 104.758-1.321.267-1.077.567 2.22 2.732 29.22 28.927 22.423 88.542.716 118.317-3.595 4.748-4.803 5.415-7.095 3.914-1.152-.755-1.691-2.131-2.57-6.553-7.398-30.735-23.784-55.975-49.755-68.591l-6.084-2.89-48.514-.273-48.514-.273.192 52.748c-5.945 50.299-3.806 91.393 63.049 114.53 8.541 2.404 8.827 3.884 1.87 9.674-29.481 23.865-91.276 29.408-110.012-1.444l-1.33-2.537-.565 3.171c3.763 76.096-82.271 92.203-97.505 20.927-.695-1.789-.88-1.339-3.121 7.611-11.882 94.542-123.504 88.672-125.929-1.882zm100.228-61.452c46.639-5.121 87.55-16.949 134.127-38.782 9.429-4.42 28.756-14.39 33.578-17.324l1.885-1.147-4.256-4.143c-94.689-81.304-269.32-74.902-359.989-24.776-13.166 7.772-34.76 22.846-43.091 30.081l-2.466 2.142 11.344 5.293c64.243 29.972 115.506 44.987 168.936 49.484 10.215.86 49.497.316 59.929-.829zm170.91-367.915v-223.546h-410.945v447.093h410.945v-223.546zm86.256 214.35c46.25-125.82 114.358-346.008-6.458-435.994-.701 0-8.858 10.669-13.821 18.074-59.924 135.449-71.486 275.147-2.436 396.675 8.266 14.281 18.625 30.301 19.209 29.707.117-.12 1.695-3.928 3.507-8.462zm-570.942-.158c66.638-183.079 69.523-289.528-2.74-428.067-3.256-4.971-6.053-9.037-6.215-9.037-89.065 65.187-76.571 380.316 8.955 437.104zm471.052-517.618c5.232-3.92 10.306-7.875 11.276-8.788l1.763-1.66-3.032-1.553c-127.097-59.152-294.448-52.558-395.745-1.142-5.319 2.845-9.671 5.511-9.671 5.924 94.16 107.792 329.736 73.988 395.409 7.219zm-399.895 633.936c-.553-1.985-.673-12.506-.164-14.404.213-.793.877-1.426 1.496-1.426.613 0 4.501 1.592 8.64 3.539 63.563 29.889 116.263 45.76 166.271 50.072 20.442 1.763 51.178 1.734 64.956-.06 1.394-.182 6.496-.757 11.338-1.278 9.711-1.046 27.558-4.282 39.974-7.249 36.025-8.61 76.704-24.695 113.169-44.75 7.331-4.032 7.811-4.205 8.618-3.101-76.238 75.849-370.576 97.995-414.298 18.657zm497.377-104.328c-.61-.173-1.109-.729-1.109-1.236s2.112-6.261 4.694-12.786c67.735-159.942 80.381-304.402-7.104-436.006 128.395 112.394 109.686 321.207 19.049 450.126l-7.211.11c-3.966.06-7.71-.032-8.32-.205zm-578.198-451.114c-141.795 483.105-70.898 241.552 0 0zm81.411-93.207c.021-5.607.224-10.935.451-11.84 121.923-60.55 487.032-53.134 413.956 15.249-.702.582-3.532-.501-13.514-5.172-139.418-60.524-268.997-61.866-391.877 5.122-10.506 6.212-7.695 2.969-9.016-3.359zm414.119 13.047c0-1.917.119-2.701.264-1.743.145.959.145 2.527 0 3.485-.145.958-.264.174-.264-1.743zm-414.491 618.482c-.645-.777-.737-9.66-.459-44.026l.348-43.053c-5.195-366.267-5.965-358.985-75.156-442.371-3.189-4.817-5.798-8.987-5.798-9.266 28.169-4.259 41.763-1.744 81.085-1.359 2.575-13.039-7.077-95.737 9.75-79.784 103.638 99.863 325.279 78.89 396.989-2.574 3.344-2.664 6.714-5.183 7.49-5.598 7.255 24.898 2.721 46.31 2.413 88.019 0 0 52.468-.985 77.342.76 1.416 1.416.77 2.901-3.706 8.52-77.029 145.586-81.34 304.71.815 431.776 6.047 9.197 6.863 10.745 6.13 11.628-.764.921-4.7.997-40.938.793l-40.092-.226v41.841c0 41.942-.068 43.361-2.089 43.361-.313 0-2.465-1.804-4.783-4.01-130.366-90.391-291.736-83.418-402.173 2.81-4.985 3.962-5.882 4.307-7.167 2.759zm413.044-313.547v-223.3h-409.224v446.6h409.224zm-380.738 59.468c-.117-108.339 46.558-256.03 145.806-263.39 33.848-10.733 81.607 3.218 109.389 22.576 54.781 37.647 88.898 97.489 94.614 166.364 6.678 59.704-1.102 124.179-37.358 173.824-15.547 20.447-31.591 43.161-53.069 56.935-6.419.016-174.125 18.981-193.042-15.806-35.695-38.53-61.665-87.649-66.341-140.504zm269.194 132.312c8.586-15.607-13.887-1.359 0 0zm-169.202-1.825c-8.23-12.969 16.939-20.757 10.706-3.929 13.557 12.989 17.881-13.174 10.966-20.799 4.576-22.251-1.862-43.75-6.476-64.976-2.467-26.573-7.745-53.537-4.208-80.117-6.086-21.837-18.748 13.205-16.759 22.546 1.168 20.368-5.678 40.079-.787 60.15 2.257 20.348 5.572 40.884 5.239 61.295-1.41 8.221-7.829 19.782 1.318 25.831zm126.404.693c8.863-6.403-3.007-28.049-2.921-8.976-4.493 4.591-8.612 15.178 2.921 8.976zm-157.102-2.85c9.224 2.653 15.356-20.52 5.789-17.8 3.468-13.578 19.445-36.56 13.1-44.968-4.933 21.29-40.234 33.582-24.933 58.288-.639 3.632 2.837 6.345 6.044 4.48zm106.744-.83c-9.418-23.25 9.017-48.954-3.541-71.583-5.929-24.097-8.438-50.852 2.659-73.896 10.018-4.637 41.324-19.254 23.435-30.535-8.306 15.251-44.09 4.436-33.05 31.997 2.632 24.298-10.923 49.808 1.403 72.98 11.415 22.708-.964 47.106.041 69.849 1.471 3.787 6.398 3.058 9.055 1.188zm-30.783-4.93c18.123 2.878 12.926-47.399 9.327-15.561-2.798 5.373-6.779 10.048-9.327 15.561zm36.843-7.591c10.645-23.488.762-49.917 7.806-74.117-15.782-17.869 11.364-33.684 12.612-51.425-6.84-25.721-30.611 9.102-27.053 23.365-5.112 31.832 16.828 62.587 5.877 94.191-.488 2.46-1.868 6.184.757 7.985zm89.68-.027c9.124-24.587-3.19-49.669-5.51-74.276-2.781-6.637-11.679-38.242 1.048-28.453 9.533 24.942 13.498 51.77 15.062 78.129 3.957 17.077 28.393 11.686 16.558-5.779-5.343-24.539-12.025-48.598-19.871-72.408-5.828-21.28-22.846-36.938-27.778-58.433-10.665 14.841-4.863 42.598-11.109 62.105-2.555 26.817-5.336 54.286-7.561 80.718 8.735 15.507 17.945-9.597 17.843-14.427 12.636 4.169-1.337 34.398 21.318 32.826zm-23.022-40.242c-3.381-23.939 17.41 9.103 0 0zm-3.229-12.515c-5.355-25.512 21.148 5.267 0 0zm-189.207 35.697c4.583-16.366.35-29.174 1.631-46.031 4.016-18.334 11.712-35.962 11.364-55.057-1.609-9.353 4.846-34.053 14.789-24.657-3.166 24.324-7.608 48.695-16.736 71.534-3.484 14.703 20.058 24.241 15.569 3.342 1.178-33.107 4.238-66.143 4.341-99.288-11.593-15.803-2.84-37.397-10.595-54.018-7.833 21.413.439 46.215-13.746 65.801-10.551 33.654-3.314 69.769-11.682 103.842-2.517 11.79.571 23.702 5.066 34.531zm6.071-134.453c-3.845-15.143 24.671-5.733 3.59.021l-1.797.331-1.793-.351zm247.622 123.249c-3.75-7.771-5.423-36.103-9.552-28.575 1.635 9.832 1.077 21.622 9.552 28.575zm-238.197-4.998c-.117-5.192-3.684 5.928 0 0zm87.167-4.473c2.59-14.052-10.008 6.671 0 0zm-85.219-4.078c-5.897-3.955 1.723 5.902 0 0zm-8.257-3.318c10.396-5.723-7.105-.221 0 0zm94.052-9.951c-1.861-14.397-2.883 15.983 0 0zm58.627 4.783c-14.191-7.925-5.547-19.504 6.258-22.267 4.08-17.556 7.046-35.75 9.852-53.65 3.405-15.252-16.112-29.629-13.245-6.555-2.492 24.239-3.681 49.887-16.641 71.301-3.467 8.776 8.543 9.275 13.776 11.172zm99.037.49c-3.285-22.832-9.028-.237 0 0zm-189.985-15.475c10.817-6.217-4.649-5.447 0 0zm171.778-8.437c-3.509-25.738-7.979-51.53-11.425-76.979-3.955-15.153-6.694-47.334-22.394-46.212-3.367 15.405-12.716 15.045-17.223 5.386.758 8.931 9.151 21.702 13.718 15.232 17.812 19.594 11.981 48.998 25.451 70.795 3.97 10.514 1.323 24.656 11.874 31.78zm26.097 2.811c1.783-22.614-14.04 4.102 0 0zm-16.482-6.031c6.067-8.032-4.696-2.057 0 0zm-181.393-.349c15.99-14.72 5.216-37.078.28-54.293-4.282-18.73-1.107-40.461-14.421-56.228-3.098-1.369 9.062 19.209 6.233 28.383-.1 15.625.449 31.697 7.985 45.778 3.163 11.972-.116 24.258-.077 36.36zm182.78-24.355c6.726-7.778-8.299-33.597-7.609-12.451 1.434 5.909 8.189 39.941 7.609 12.451zm28.279 7.619c8.207-16.669-9.044-9.475-2.132 2.564 1.049-.571 1.51-1.588 2.132-2.564zm-216.762-7.809c7.773-3.245-4.565-5.878 0 0zm193.917-33.599c15.156-4.389-8.708-24.469-.991-10.294 4.413 3.056-10.258 14.602.991 10.294zm-78.581-6.147c-1.298-3.129-1.298 3.129 0 0zm63.14-6.813c8.624-5.956-4.715-8.785 0 0zm-61.623-5.368c.758-14.948-8.215 8.123 0 0zm63.327-5.864c1.658-9.862-13.942-23.839-8.805-5.824.704 3.636 4.851 8.376 8.805 5.824zm-88.291-3.057c8.762-9.176-8.389-18.927-2.772-4.014-.218-.767 1.73 8.766 2.772 4.014zm-39.651-1.485c24.577-15.424 12.343-53.77 37.717-68.524 10.312-.705 21.513-25.696 4.774-10.825-18.007 18.294-48.164 22.424-68.18 5.333-6.135-18.09 2.622-49.342 28.985-40.687 13.566 3.752 24.362 44.819 39.776 21.455 11.12-31.966-27.694-67.73-58.276-51.647-26.222 10.357-35.568 45.869-19.017 68.262 33.779 20.852 12.927 56.524 33.018 77.779zm-76.681-.958c13.278-5.022 3.028-24.675-1.648-5.932-1.204 1.743-1.895 6.496 1.648 5.932zm-35.401-7.927c10.253-12.718-4.996-13.061-3.748-.529l1.434.547 2.314-.019zm32.597-13.869c13.433-13.784-15.957-8.734-3.4 1.221 1.394.691 2.283-.717 3.4-1.221zm196.381-6.625c31.567-12.706 27.145-68.442-7.758-73.219-26.592-6.748-58.855 16.519-54.525 45.202-7.893 23.037 37.517 15.678 17.325-3.295-.15-28.061 46.728-29.277 46.891-.485 1.864 11.276-25.017 28.268-1.932 31.797zm-28.411-9.26c8.047-8.289 4.366-45.607-5.753-22.289.558 7.256-1.903 17.981 5.753 22.289zm-202.199-3.495c2.515-18.943 18.124-45.271 40.556-37.878 10.67 5.192 17.071 44.752 27.527 16.28 7.797-26.77-20.984-52.111-46.914-47.162-26.375 1.612-48.158 31.71-35.829 56.694 2.585 5.998 7.792 11.55 14.66 12.067zm33.53-5.623c27.848 4.275-5.271-41.545-7.392-12.098-.81 4.341-.068 16.082 7.392 12.098zm88.787-37.358c4.095-26.514-45.578-6.447-14.38 1.048 4.785-.346 9.564-2.262 14.38-1.048zm-7.793-86.976c1.334-3.518 4.053-5.482 8.769-10.217 33.402-33.531 15.8-18.392-2.129-11.441-.991-11.616-3.903-19.052-5.87-16.47 1.502 5.221-1.327 7.95-4.999 17.863-22.017-20.175-28.911-7.632 3.823 10.455 2.298 1.27 1.492 5.516.404 9.811z"/></svg>