<svg xmlns="http://www.w3.org/2000/svg" xmlns:xlink="http://www.w3.org/1999/xlink" height="100" width="100"><defs><linearGradient id="h"><stop stop-opacity=".408" stop-color="#fff" offset="0"/><stop stop-opacity="0" stop-color="#dbdbdc" offset=".306"/><stop stop-opacity=".122" stop-color="#121212" offset=".528"/><stop stop-opacity=".357" stop-color="#121212" offset=".811"/><stop stop-opacity=".755" stop-color="#121212" offset="1"/></linearGradient><linearGradient id="g"><stop offset="0" stop-color="#4a4a4c"/><stop offset="1" stop-color="#626266"/></linearGradient><linearGradient id="f"><stop offset="0"/><stop offset="1" stop-color="#b7b7b9" stop-opacity=".388"/></linearGradient><linearGradient id="e"><stop offset="0" stop-color="#fff" stop-opacity=".408"/><stop offset=".5" stop-color="#dbdbdc" stop-opacity="0"/><stop offset=".82" stop-color="#121212" stop-opacity=".122"/><stop offset=".906" stop-color="#121212" stop-opacity=".357"/><stop offset="1" stop-color="#121212" stop-opacity=".755"/></linearGradient><linearGradient id="d"><stop offset="0" stop-color="#8c8c8c"/><stop offset=".673" stop-color="#8c8c8c"/><stop offset="1" stop-color="#8c8c8c" stop-opacity="0"/></linearGradient><linearGradient id="c"><stop offset="0" stop-color="#fdfdfe"/><stop offset="1" stop-color="#f1f1f2" stop-opacity=".469"/></linearGradient><radialGradient cx="130.205" cy="272.027" fx="130.205" fy="272.027" gradientTransform="matrix(1.015 .143 -.185 1.313 54.314 -112.922)" gradientUnits="userSpaceOnUse" r="229.935" xlink:href="#a"/><linearGradient id="b"><stop offset="0" stop-color="#8b8b8e"/><stop offset="1" stop-color="#58575d"/></linearGradient><linearGradient id="a"><stop offset="0" stop-color="#7d7d7f"/><stop offset="1" stop-color="#515056"/></linearGradient><linearGradient><stop offset="0" stop-color="#4e494d"/><stop offset="1" stop-color="#4e494d" stop-opacity="0"/></linearGradient><radialGradient cx="437.14" cy="149.884" fx="437.14" fy="149.884" gradientTransform="matrix(.206 -.158 .293 .383 323.171 127.2)" gradientUnits="userSpaceOnUse" r="229.935" xlink:href="#b"/><radialGradient cx="560.428" cy="335.868" fx="560.428" fy="335.868" gradientTransform="matrix(1.508 .364 -.091 .379 -251.734 106.933)" gradientUnits="userSpaceOnUse" r="229.935" xlink:href="#a"/><radialGradient cx="341.698" cy="525.469" fx="341.698" fy="525.469" gradientTransform="matrix(1.085 .177 -.361 2.207 161.47 -608.299)" gradientUnits="userSpaceOnUse" r="167.424" xlink:href="#c"/><radialGradient cx="1089.553" cy="620.162" fx="1089.553" fy="620.162" gradientTransform="matrix(1 0 0 .735 0 164.16)" gradientUnits="userSpaceOnUse" r="11.192" xlink:href="#d"/><radialGradient cx="341.698" cy="525.469" fx="341.698" fy="525.469" gradientTransform="matrix(.832 .325 -.376 .963 255.864 -5.12)" gradientUnits="userSpaceOnUse" r="167.424" xlink:href="#c"/><radialGradient cx="381.481" cy="362.48" fx="381.481" fy="362.48" gradientUnits="userSpaceOnUse" r="350.787" xlink:href="#e"/><linearGradient gradientTransform="matrix(.964 0 0 .964 13.572 13.48)" gradientUnits="userSpaceOnUse" x1="529.999" x2="276.384" xlink:href="#f" y1="121.459" y2="52.004"/><linearGradient gradientTransform="matrix(.964 0 0 .964 -713.601 14.749)" gradientUnits="userSpaceOnUse" x1="1346.341" x2="1116.426" xlink:href="#f" y1="636.281" y2="241.606"/><linearGradient gradientTransform="matrix(.964 0 0 .964 13.572 13.48)" gradientUnits="userSpaceOnUse" x1="146.084" x2="10.688" xlink:href="#f" y1="588.838" y2="294.073"/><radialGradient cx="381.481" cy="362.48" fx="381.481" fy="362.48" gradientUnits="userSpaceOnUse" r="350.787" xlink:href="#e"/><linearGradient gradientTransform="matrix(.964 0 0 .964 13.572 13.48)" gradientUnits="userSpaceOnUse" x1="146.084" x2="10.688" xlink:href="#f" y1="588.838" y2="294.073"/><linearGradient gradientTransform="matrix(.964 0 0 .964 -713.601 14.749)" gradientUnits="userSpaceOnUse" x1="1346.341" x2="1116.426" xlink:href="#f" y1="636.281" y2="241.606"/><linearGradient gradientTransform="matrix(.964 0 0 .964 13.572 13.48)" gradientUnits="userSpaceOnUse" x1="529.999" x2="276.384" xlink:href="#f" y1="121.459" y2="52.004"/><radialGradient cx="130.205" cy="272.027" fx="130.205" fy="272.027" gradientTransform="matrix(1.015 .143 -.185 1.313 54.314 -112.922)" gradientUnits="userSpaceOnUse" r="229.935" xlink:href="#a"/><radialGradient cx="560.428" cy="335.868" fx="560.428" fy="335.868" gradientTransform="matrix(1.508 .364 -.091 .379 -251.734 106.933)" gradientUnits="userSpaceOnUse" r="229.935" xlink:href="#a"/><radialGradient cx="437.14" cy="149.884" fx="437.14" fy="149.884" gradientTransform="matrix(.206 -.158 .293 .383 323.171 127.2)" gradientUnits="userSpaceOnUse" r="229.935" xlink:href="#b"/><radialGradient cx="341.698" cy="525.469" fx="341.698" fy="525.469" gradientTransform="matrix(1.085 .177 -.361 2.207 161.47 -608.299)" gradientUnits="userSpaceOnUse" r="167.424" xlink:href="#c"/><radialGradient cx="341.698" cy="525.469" fx="341.698" fy="525.469" gradientTransform="matrix(.832 .325 -.376 .963 255.864 -5.12)" gradientUnits="userSpaceOnUse" r="167.424" xlink:href="#c"/><radialGradient cx="1089.553" cy="620.162" fx="1089.553" fy="620.162" gradientTransform="matrix(1 0 0 .735 -129.386 476.294)" gradientUnits="userSpaceOnUse" r="11.192" xlink:href="#d"/><linearGradient gradientUnits="userSpaceOnUse" x1="291.243" x2="199.537" xlink:href="#g" y1="570.28" y2="374.774"/><radialGradient cx="341.698" cy="525.469" fx="341.698" fy="525.469" gradientTransform="matrix(.81 .317 -.366 .937 259.065 652.999)" gradientUnits="userSpaceOnUse" r="167.424" xlink:href="#c"/><radialGradient cx="341.698" cy="525.469" fx="341.698" fy="525.469" gradientTransform="matrix(1.056 .173 -.351 2.148 167.2 65.987)" gradientUnits="userSpaceOnUse" r="167.424" xlink:href="#c"/><radialGradient cx="437.14" cy="149.884" fx="437.14" fy="149.884" gradientTransform="matrix(.201 -.154 .285 .372 324.567 781.773)" gradientUnits="userSpaceOnUse" r="229.935" xlink:href="#b"/><radialGradient cx="695" cy="467.921" fx="695" fy="467.921" gradientTransform="matrix(.798 .387 -.112 .231 55.283 700.21)" gradientUnits="userSpaceOnUse" r="229.935" xlink:href="#a"/><radialGradient cx="130.205" cy="272.027" fx="130.205" fy="272.027" gradientTransform="matrix(.987 .139 -.18 1.278 62.916 -99.906)" gradientUnits="userSpaceOnUse" r="229.935" xlink:href="#a"/><linearGradient gradientTransform="matrix(.938 0 0 .938 23.266 671.101)" gradientUnits="userSpaceOnUse" x1="529.999" x2="276.384" xlink:href="#f" y1="121.459" y2="52.004"/><linearGradient gradientTransform="matrix(.938 0 0 .938 -684.417 672.336)" gradientUnits="userSpaceOnUse" x1="1346.341" x2="1116.426" xlink:href="#f" y1="636.281" y2="241.606"/><linearGradient gradientTransform="matrix(.938 0 0 .938 23.266 671.101)" gradientUnits="userSpaceOnUse" x1="146.084" x2="10.688" xlink:href="#f" y1="588.838" y2="294.073"/><radialGradient cx="128.438" cy="306.299" fx="128.438" fy="306.299" gradientTransform="matrix(.959 .099 -.172 1.667 64.335 440.393)" gradientUnits="userSpaceOnUse" r="229.935" xlink:href="#a"/><linearGradient gradientUnits="userSpaceOnUse" x1="212.773" x2="213.066" xlink:href="#g" y1="563.516" y2="405.892" gradientTransform="translate(0 665.838)"/><radialGradient xlink:href="#e" cx="375.269" cy="373.064" fx="375.269" fy="373.064" r="351.817" gradientTransform="matrix(1 0 0 .986 0 5.222)" gradientUnits="userSpaceOnUse"/><radialGradient xlink:href="#e" gradientUnits="userSpaceOnUse" gradientTransform="matrix(1 0 0 .986 304.9 20.359)" cx="375.269" cy="373.064" fx="375.269" fy="373.064" r="351.817"/><radialGradient xlink:href="#e" gradientUnits="userSpaceOnUse" gradientTransform="matrix(1 0 0 .986 305.795 20.191)" cx="375.269" cy="373.064" fx="375.269" fy="373.064" r="351.817"/><linearGradient xlink:href="#f" id="i" gradientUnits="userSpaceOnUse" gradientTransform="matrix(6.423 0 0 6.342 192.202 190.91)" x1="146.084" y1="588.838" x2="10.688" y2="294.073"/><linearGradient xlink:href="#f" id="j" gradientUnits="userSpaceOnUse" gradientTransform="matrix(6.423 0 0 6.342 -4653.832 199.261)" x1="1346.341" y1="636.281" x2="1116.426" y2="241.606"/><linearGradient xlink:href="#f" id="k" gradientUnits="userSpaceOnUse" gradientTransform="matrix(6.423 0 0 6.342 192.202 190.91)" x1="529.999" y1="121.459" x2="276.384" y2="52.004"/><radialGradient xlink:href="#a" id="l" gradientUnits="userSpaceOnUse" gradientTransform="matrix(6.565 .669 -1.179 11.273 473.434 -1368.977)" cx="128.438" cy="306.299" fx="128.438" fy="306.299" r="229.935"/><linearGradient xlink:href="#g" id="m" gradientUnits="userSpaceOnUse" gradientTransform="matrix(6.848 0 0 6.761 94.224 94.76)" x1="212.773" y1="563.516" x2="213.066" y2="405.892"/><radialGradient xlink:href="#a" id="n" gradientUnits="userSpaceOnUse" gradientTransform="matrix(5.465 2.616 -.765 1.559 411.448 387.723)" cx="695" cy="467.921" fx="695" fy="467.921" r="229.935"/><radialGradient xlink:href="#b" id="o" gradientUnits="userSpaceOnUse" gradientTransform="matrix(1.376 -1.039 1.951 2.517 2255.435 939.196)" cx="437.14" cy="149.884" fx="437.14" fy="149.884" r="229.935"/><radialGradient xlink:href="#c" id="p" gradientUnits="userSpaceOnUse" gradientTransform="matrix(7.232 1.168 -2.405 14.521 1177.828 -3900.45)" cx="341.698" cy="525.469" fx="341.698" fy="525.469" r="167.424"/><radialGradient xlink:href="#c" id="q" gradientUnits="userSpaceOnUse" gradientTransform="matrix(5.548 2.14 -2.507 6.336 1806.892 68.521)" cx="341.698" cy="525.469" fx="341.698" fy="525.469" r="167.424"/><radialGradient xlink:href="#d" id="r" gradientUnits="userSpaceOnUse" gradientTransform="matrix(6.839 .021 .024 4.978 -5986.036 -495.472)" cx="1089.553" cy="620.162" fx="1089.553" fy="620.162" r="11.192"/><radialGradient xlink:href="#h" id="t" cx="12.21" cy="36.25" fx="12.21" fy="36.25" r="29.39" gradientTransform="matrix(1 0 0 .923 0 2.802)" gradientUnits="userSpaceOnUse"/><radialGradient xlink:href="#f" cx="45.593" cy="84.679" fx="45.593" fy="84.679" r="2.322" gradientTransform="matrix(1 0 0 .846 0 13.042)" gradientUnits="userSpaceOnUse"/><radialGradient xlink:href="#f" id="s" cx="45.593" cy="84.678" fx="45.593" fy="84.678" r="2.822" gradientTransform="matrix(1 0 0 .873 0 10.73)" gradientUnits="userSpaceOnUse"/></defs><path d="M38.338 14.208l-.701-.507c-.409-.296-1-.405-1.401-.507-.437-.111-1.049 0-1.502 0-.578 0-.765.194-1.201.304-.288.073-.738.443-.901.608-.309.313-.496.487-.601.912-.12.488-.2.758-.2 1.318 0 .383.253.495.701.608.623.158-.064.843-.2.912-.308.156-.68-.588-.801-.71-.287-.29-.528.562-.601.71-.175.354-.825.126-1.101.406-.172.175.01 1.094-.1 1.318-.131.265-.726.431-.901.608-.306.31-.543.449-.801.71l-.701.811c-.426.432-.4.109-.4-.507 0-.695.475-.533 0-1.014-.238-.241-.938.443-1.001.507-.344.348-.934-.034-1.101-.203-.337-.341-.3-.611-.3-1.217 0-.347.321-.793.4-1.115.124-.501.217-.744.4-1.115.215-.436.04-.547.4-.912.399-.404.646-.093.901-.608.011-.023-.26-.874-.2-1.115l.4-1.115c.141-.571.379-.934.901-.406.399.404.559.239 1.101.101.504-.128.763-.294 1.201-.406l1.101-.406c.287-.073.638-.545.801-.71.253-.256 1.179-.121 1.502-.203.499-.126.494-.532.4-.912-.097-.395.842-.081 1.201.101.051.026.86-.471 1.001-.507.438-.111.68-.344 1.001-.507.359-.182.69-.301 1.101-.406.602-.152-.575-.703-.601-.71l-1.201-.406c-.412-.104-.963-.117-1.301-.203-.337-.085-.93.235-1.201.304-.437.111-1.049 0-1.502 0-.335 0-.547.655-.701.811-.195.197-1.045.101-1.401.101-.657 0-.674.197-.801.71-.146.591-.371.474-.901.608-.597.151-.823.113-1.201.304-.492.249-.679.183-1.001.101-.418-.106-.671-.549-.801-.811-.251-.508.344-.855.501-1.014.629-.637-.068-.811-.801-.811-.229 0-.851.494-1.001.608-.369.28-.631.335-.901.608-.306.31-.643.347-.901.608-.248.251-.48.668-.601.912-.065.131-1.022.365-1.101.406-.338.171-.582.488-.801.71-.298.302-.57.5-.801.811-.195.263-.768.389-1.001.507-.379.192-.586.449-.901.608-.412.209-.559.435-.901.608-.304.154-.501.609-.701.811-.316.32.969.296 1.001.304.01.003-.641.75-.701.811-.306.31-.543.449-.801.71l-.701.811c-.19.193-.511-.213-.701-.406-.11-.111-.673.754-.701.811l-.601.912c-.152.308-.601.508-.801.71-.272.275.565.59.601.608.183.093-.898.708-.901.71-.532.269-.457.432-.3-.203.002-.008-1.043.376-1.101.406-.456.231-.609.423-.801.811-.181.367.215.547.1 1.014-.051.206-.623.631-.801.811-.471.477-.971 1.287-1.301 1.622-.18.183-.395.799-.501 1.014-.214.433-.48.423-.601.912-.034.139.163.339.3.304l.2.406c.22-.056.528-.766.601-.912.208-.421.339-.647.601-.912l.701-.811c.264-.268.63-.471.901-.608.44-.223.415.464.501.811.186.754-.62.193-.801.101l-.601.71-.701.811c-.341.345-.498.4-.701.811-.6 1.215-1.172.795-1.401 1.724-.166.673.707-.108.801-.203l.701-.811c.384-.389.731.08.901-.608.146-.591.138-.678.601-.912.267-.135.502.406.801.406.293 0-.474.784-.501.811-.15.152 0 1.28 0 1.521 0 .005-.601-.446-.601-.912 0-.697-.463.457-.501.608-.08.323-.48.668-.601.912-.198.402-.289.698-.601 1.014-.516.522-.255-.452-.1-.608.193-.195.33-.832.4-1.115.207-.84-.622-.079-.701 0-.306.31-.343.651-.601.912-.16.162-.348.901-.4 1.115-.112.456-.3.646-.3 1.217 0 .672.33.626.801.507.757-.192.591.443.501.811-.099.401-.404.661-.701.811-.361.183-.109-1.214-.501-1.115-.24.061-.42.851-.501 1.014-.217.44-.281.63-.4 1.115-.111.45-.213.758-.1 1.217.132.536.136.71.801.71.332 0 .4-.776.4-1.115 0-.788.1.53.1.811 0 .63-.054.534-.601.811-.533.27-.501.73-.501 1.014 0 .366.646-.35.901-.608.26-.264.638-.475.901-.608.365-.185.395.096.701.406.388.393.092.382-.4.507-.429.109-.61.281-1.101.406-.667.169-.768.135-.4.507.146.147 1.037-.262 1.201-.304.667-.169.703.315.801.71.126.512.475.412-.3.608-.344.087.55.456.801.71.35.355.374.501.501 1.014.111.449-.616-.162-.701-.507-.152-.615-.775-.317-1.001-.203-.236.12.188 1.27.2 1.318.042.172.593.702.701.811.354.359.619.331.501.811-.019.077-.783.129-.901.608-.03.122.4.685.4 1.115 0 .497-.501.411-.501 1.014 0 .663.059.954-.3 1.318-.318.322-.565.262-.701.811-.076.31-.087.131-.2.304l.501.406c.483.391.535.171.801.71.259.524.861-.365.901-.406.433-.438.695-.123.801.304.11.445.018 1.087.1 1.419.126.512.701-.089.701.811 0 .07.801.039.801.71 0 .513.1.84.1 1.419 0 .113.63.74.701.811.408.414-.196.809-.4.912-.342.173.038 1.09.1 1.217.227.459.399.704.501 1.115.054.218.765.539.901.608.349.177.93.101 1.401.101.451 0 .05-.912 0-1.115-.067-.273.268-.882.3-1.014.135-.546.245-.428.1-1.014-.026-.104.786.695.801.71.305.309.501-.06.501.811 0 .235.318.78.4 1.115.162.657-.189.495-.501.811-.626.634.337.489.501.406.415-.21.764-.212 1.201-.101.699.177.38-.649.3-.811-.192-.389-.396-.59-.501-1.014-.116-.47-.327-.601-.2-1.115.036-.146.732.671.801.811.169.342.482.59.701.811.194.196.856-.191.901-.203.138-.035.753.444 1.001.507.526.133.61-.121.801-.507.227-.46.283-.591.601-.912.43-.435.868.991 1.001 1.217.268.453.548.497.701 1.115.045.181.689.596.801.71.515.521.413.152.3.608-.017.071-.577.107-.701.608-.05.204.446.793.501 1.014.103.418.108.88 0 1.318-.097.394-.572.695-.801.811-.552.279-.608.098-1.001-.101-.363-.184-.653-.406-1.201-.406-.3 0-.611.63-.701.811-.242.491.12.857-.501 1.014-.398.101-.515.566-.601.912-.139.564.205.83.3 1.217.061.246.732.523.901.608.372.189.682.488.901.71.547.554-.425.077-.601-.101-.541-.548-.581.039-.4.406l.501 1.014c.21.426.391.572.501 1.014.067.273.629.738.801.912.284.288.003-.822.1-1.217l.4.101c.621.157.589-.226.901.406.163.331.589.495.801.71.307.311-.105.892 0 1.318.108.436.501.336.501 1.115 0 .69.525 0 .601-.304.101-.41-.317-.64-.2-1.115.11-.446.48.79.801 1.115.205.208.455-.553.901-.101.487.493-.924.406-1.101.406-.539 0 .166.507.601.507.598 0 .652-.098.901.406.246.498.145-.731.1-.912-.033-.134.39-.652.3-1.014-.008-.031-1.052-.178-1.101-.203-.664-.336-.857-.383-.701-1.014.109-.44.767.498 1.201.608.33.084.408.203.701.203.413 0 .116-.843.3-1.217.169-.342.463.64.801.811.359.182-.003-.822-.1-1.217-.107-.433-.381-.531-.501-1.014-.191-.772.303-.603.501-.203.28.566.573.13.801-.101.154-.156.718.727.801.811.324.328.525.418.901.608.399.202.415-.465.501-.811.072-.292-.721-.619-.901-.71-.328-.166-.566-.538-.701-.811-.188-.381.325-.912-.4-.912-.427 0 .005-.43-.701-.608-.537-.136-.48.528-1.001 0-.281-.285-.2-.862-.2-1.318 0-.604-.073-.903-.2-1.419-.198-.803.522-.715.901-.811.107-.027.399-.608.801-.71.461-.117.476-.406 1.101-.406.349 0 .502.71 1.101.71.731 0 .578-.296.501-.608-.034-.137-.709-.617-.801-.71-.533-.54-.028-.369.3-.203.614.311.068-.572 0-.71-.312-.632.022-.867.3-.304.354.717.501-.098.501-.507 0-.626.339-.608.901-.608.644 0 .797-.098 1.101-.406.39-.395.655-.277 1.001-.101.506.256-.359.87-.4.912-.315.319-.188.859-.1 1.217.114.46.3.74.3 1.318 0 .372-.773-.166-1.101 0-.454.23.314.825-.4.101-.557-.565-.358.043-.1.304.378.382-.438.95-.501 1.014-.245.248-.13 1.137-.2 1.419-.054.218-1.196.101-1.401.101-.167 0 .2-.379.2-.912 0-.339-.883-.304-1.201-.304-.577 0 .069.952.1 1.014.075.151.2.27.3.406.213.287-.542.49-.701.811-.108.218-.36-.406-.601-.406l-.2.406c-.577-.146-1.124.121-.4.304.517.131.641.289 1.101.406.42.106.65.405.801.71.266.538-.007.912.701.912.508 0 .08.345.601.608.418.212.727.672 0 .304-.283-.143.607.835.3.912-.649.164-.461.445-.2.71.384.389.588.203-.3.203-.552 0-.755.23-1.101.406-.312.158-.3.835-.3 1.217 0 .678-.556.451-.801.203-.401-.406-.64-.385-.4.101.196.396.009.589-.1.811-.18.365.501.707.501 1.115 0 .738.091.71.801.71h1.502c.374 0 .248-.633.601-.811.545-.276.458-.138-.2-.304-.392-.099.312-.608.701-.608.614 0 .964-.037 1.301.304.264.267-.911.14-1.001.507-.064.259.692.555.901.608.644.163-.145-1.023 1.401-.71.087.018.619-.83.701-.912.48-.486-.277-.608-.701-.608-.628 0-.418.304-1.101.304-.126 0-.859-.536-1.001-.608-.371-.188-.927-.165-1.201-.304-.334-.169.737-.24 1.001-.507.165-.167-.057-.48 0-.71l.801.304c.567-.287-.781-.608-.901-.608-.402 0 .811-.2 1.201-.101l1.001.507c.504.128.576.204.4-.507-.179-.723-.003-.713-.4-1.115-.29-.293-.2-.84-.2-1.318 0-.536-.5-.608-1.001-.608-.724 0-.835-.143-.2-.304.552-.14.809-.093 1.101.203.207.209.423.7.501 1.014l.501 1.014c.123.496.106.935.2 1.318.095.384.825.126 1.101.406.493.499.625 1.294 1.201.71.138-.14.481.446.801.608.539.273.786.435 1.301.304.279-.071-.835-.879-.901-.912-.025-.012.542-.853.601-.912.317-.321.527-.304 1.201-.304h1.401c.272 0-.417.131-.701.203-.448.113-.601.426-.601.912 0 .42.429.637.701.912.32.324.692.406 1.201.406.333 0 .637-.553.701-.811.138-.559.092-.82-.2-1.115l-.501-.507c-.06-.122 1.165-.479 1.502.203" fill="none"/><path d="M100.339 49.925c0 27.51-22.459 49.812-50.163 49.812-27.704 0-50.163-22.302-50.163-49.812 0-27.51 22.459-49.812 50.163-49.812 27.704 0 50.163 22.302 50.163 49.812z" color="#000" fill="#d1d1d2" fill-rule="evenodd" overflow="visible"/><path d="M3.133 67.458c-3.922-11.334-4.696-24.14 1.291-37.943.251-.58 1.026 1.438 1.026 2.066v2.74c0 1.172.152 1.404.541 2.192l.902 1.827c.356.72.27 1.094.541 2.192.158.64.339 1.783.721 2.557.49.992.577 2.082 1.082 3.105.433.877 1.008 2.076 1.263 3.105.26 1.054.755 2.078 1.263 3.105.382.774.536 1.821 1.082 2.375.466.472.896.866 1.804 1.096 1.123.284 2.882.546 3.968 1.096.724.366 1.818.555 2.525.913.533.27 1.012.787 1.623 1.096.902.457 1.384.854 1.984 1.461.299.303 1.263 1.224 1.263 1.827v2.74c0 .434-.27 2.467 0 2.74.409.414.703 1.379 1.623.913.586-.297 1.091-.557 1.623-1.096.308-.312.93-1.271 1.623-1.096.352.089 1.06.16 1.623.731.464.47.892.721 1.443 1.279.34.344.929 1.019 1.443 1.279.257.13 1.532.725 1.623 1.096.16.649.367 1.597-.541 1.827-.814.206-1.186.327-1.984.731-.44.223-1.24.77-1.804.913-.966.245-1.4.279-1.804 1.096-.322.652-.698.889-1.263 1.461-.438.443-1.144.851-.361 1.644.393.399.834.971 1.443 1.279l1.984 1.096c.478.242 1.424.528 1.804.913.815.825.526.818-.541.548-.797-.202-1.469-.555-2.164-.731-.798-.202-1.548-.183-2.525-.183l-2.705-.183c-1.094 0-2.014-.183-3.066-.183-.542 0-2.331.141-1.623 1.096.653.882.86.913 2.164.913.917 0 1.618-.005 2.164.548.482.488.754.979 1.082 1.644.395.8.894 1.446 1.263 2.192.426.862.675 1.231 1.443 2.009.465.471 1.364.796 2.345.548.602-.152 2.289-.844 2.525-.365-.325-.658-.388 1.489-.902 2.009-.647.655-1.442.274-1.984 0-.616-.312-1.399-.435-1.984-.731-.736-.373-1.138-.759-1.804-1.096-1.052-.533-.892-.586-.721-1.279.309-1.251-.147-.731-1.263-.731-1.01 0-1.668.194-2.345.365-1.17.296-.467.806 0 1.279.989 1.001-.514.014-.902-.183-.646-.327-1.219-.869-1.623-1.279-.621-.629-1.236-.887-1.804-1.461-.514-.521-1.069-.815-1.623-1.096-.65-.329-1.026-.856-1.443-1.279-.377-.382.721-.636.721-1.644 0-1.285-.133-1.414-.721-2.009-.498-.504-.224 1.505-.721 2.009-.145.147-1.713-.868-1.804-.913-.656-.332-1.142-.608-1.623-1.096-.489-.495-.723-1.341-1.082-1.827-.475-.641-.683-1.086-1.443-1.279-.386-.098-1.03-1.226-1.263-1.461-.551-.558-.798-.991-1.263-1.461-.591-.598-.246-1.511 0-2.009.304-.616.869-1.063 1.263-1.461.012-.012-1.572.489-1.804.548-1.027.26-.908-.371-1.443-.913-.413-.419-.361-1.561-.361-2.375 0-.667-1.265-.71-1.775-.839z" color="#000" fill="url(#i)" fill-rule="evenodd" overflow="visible"/><path d="M82.868 70.99c-1.868 1.727-.343 4.504 1.633 5.084-.312 2.742-3.357 2.097-4.851 3.703-.76 1.495 4.947.288 2.046 1.893-1.496.155-3.431 5.829-1.669 3.067 1.8-.287 3.201-3.232 5.036-1.858 1.55-.557 1.698.079.386.899-1.261 1.114-2.159 3.985-3.827 2.735-1.24 1.818-3.653 2.779-5.808 2.794-1.588.282.996 2.71-1.444 2.917-2.406 1.257-.372-2.985.917-3.019-.002-1.858 1.059-2.728 2.911-2.57 1.815-2.75.992-3.439-.647-1.664-1.47 1.518-3.759 2.249-5.833 2.094-.758-1.913-3.07-.871-4.201-1.766 1.967-2.115 5.144-2.224 7.468-3.802 1.357-.621 3.668-.436 2.862-2.552.606-1.366 3.326-1.326 3.472-2.187-1.241-.153-2.066-.068-2.198-1.108-2.011.437-2.188 2.089-1.977 3.764-1.109 2.064-3.67 1.155-5.434 2.107-2.214.404-4.697.661-6.744-.438-1.482-.7-3.898 1.43-4.666.737 1.368-1.613 3.67-1.016 5.387-2.015 1.808-1.09 4.855-3.691 3.956-5.901-2.714-.636-3.799 3.227-5.439 4.22-1.331-.526-2.247-1.448-3.744-.888.172-1.31.124-2.565-1.751-2.604-2.357.818-4.64-1.944-2.04-3.413.174-1.688-2.821.205-3.575.64-3.06 1.236-.883-2.982.062-3.981.118-2.061 1.007-4.494-.125-6.356-1.38-.646-3.911-3.52-1.236-4.071 2.221 1.034 5.384-.289 3.798-3.08-.427-1.28-1.872-4.462.4-4.383.63-1.342-1.215-3.528 1.217-4.158 1.277-1.668 2.503-3.149 4.626-3.603 2.165-1.427 3.698-3.466 4.745-5.844.615-2.894 4.246-.801 6.189-.681 1.422 1.041.431 3.965.052 5.577-.735 1.987-.567 4.279-.181 6.329.918 2.152 3.014 3.486 4.228 5.407 1.012 2.175-.291 5.378 1.826 6.809 1.749 1.776 2.965 5.93 3.943 8.181.261.326 3.908.924 5.173-.926 1.521.629 2.54 1.96 2.42 2.111-.351.441 1.743 2.276-.195 3.064-.949.386-1.436-1.341-2.246-1.846-.81-.506-2.137.307-2.461.318-1.295.045-2.27-.129-2.463.265z" color="#000" fill="url(#j)" fill-rule="evenodd" overflow="visible"/><path d="M61 43.273c-1.211.73-.778 2.317-.96 3.485-.383 1.222-1.761 1.51-2.852 1.734-1.284.224-2.256 1.449-3.646 1.194-1.18-.053-2.516.183-3.472-.7-8.819-9.83-4.326-17.568-3.498-19.527-3.655-7.122 22.715-4.5 19.583 4.607.309 1.022.108 2.123.029 3.16-.561.871-1.655 1.385-1.707 2.544-.458 1.11-3.04 3.313-3.477 3.503z" color="#000" fill="#b3b3b5" fill-rule="evenodd" overflow="visible"/><path d="M71.641 37.062c-.224.231-.607.239-.908.332-.571.11-1.152.233-1.735.206-.69-.154-1.133-.773-1.728-1.106-.405-.244-.798.168-.834.57-.034.354-.205.896.176 1.111.559.285 1.193.346 1.784.531.392.208.059.667-.154.885-.277.289-.583.557-.928.759-.356.079-.816.29-.786.728-.04.367.402.688.189 1.031-.382.582-1.144.841-1.376 1.533-.15.261.135.504.297.195.203-.306.358-.668.727-.809.425-.231.889-.371 1.35-.503.283-.225.297-.635.365-.967.077-.427.057-.872.162-1.292.236-.471.841-.528 1.152-.931.399-.446.787-.931 1.346-1.179.346-.109.681-.237.731-.657l.171-.439z" color="#000" fill="#fbfbfc" fill-rule="evenodd" overflow="visible"/><path d="M73.075 22.356c.653-1.41.993-2.094 0-3.1-1.019-1.032-2.296.75-2.296-1.55 0-.931 1.307-1.421 1.53-2.325.217-.881-.686-2.422-1.02-3.1-.64-1.296-.652-1.435-1.53-2.325-1.07-1.084.207-4.214.893-4.908.545-.552-13.457-7.604-32.138-2.712-.192.05-1.24 3.323-1.403 3.487-.93.942-1.348.997-1.02 2.325.033.134 4.518-.502 4.863-.502 1.275 0 1.519.624 2.789.502 5.763-.548 24.342 3.278 26.017 3.875 1.285.458.899 1.538.51 2.325-.239.484-1.955 1.205-2.296 1.55-.224.227.876 1.584.51 2.325-.48.971-1.133 1.177 0 2.325l1.785 2.325c.445.45 2.677-.465 2.806-.517z" color="#000" fill="url(#k)" fill-rule="evenodd" overflow="visible"/><path d="M45.554 36.586c-.045.091 1.287-.326 1.53-.387.621-.157.965-.424 1.403-.646.893-.452.339-.258.893-.258.608 0 .855-.183 1.148-.775.215-.436.614-.752.893-1.033.26-.263.632-.386 1.148-.517.742-.188.976-.084 1.403-.517.567-.575-1.154-.517-1.403-.517-.762 0-.973.197-.765-.646.01-.04-1.643-.255-1.658-.258-.514-.13-.906-.717-1.275-.904-.549-.278-.891-.516-1.403-.646-.6-.152-.655-.844-.765-1.292-.164-.663.443-1.047.765-1.292.51-.388.74-.349 1.403-.517.721-.183 1.248.101 1.53.387.393.398 1.009.385 1.53.517.418.106.23.775 1.148.775 1.004 0 1.052.161 1.275.387.173.175-2.66 1.162-.383 1.162.644 0 .536.775 1.403.775.614 0 .865-.381 1.403-.517.306-.077.576-1.041.638-1.292l.638-1.292c.146-.593.375-.875.51-1.421.142-.575.51-.711.51-1.421 0-.728.177-1.058.638-1.292.427-.216-.114-.592-.255-1.162-.171-.691-.358-1.063-.51-1.679-.137-.556.34-1.076.51-1.421.369-.747-.546-.946-.893-1.033-.283-.072-.738.671-1.148.775-.615.156-.51-.631-.51-1.292 0-.759-.267-.91-.765-1.162-.435-.22-.94.387-1.53.387-.383 0-.669-.807-.893-1.033-.308-.312-.388-.927-.51-1.421-.175-.71-.598-.517-1.403-.517-.21 0-.876-.545-1.275-.646l-1.53-.387c-.508-.129-.818-.369-1.403-.517-.534-.135-1.161-.126-1.658 0-.142.036-.783-.664-.893-.775-.818-.828-2.754.297-3.188.517-.441.223-.97.407-1.403.517-.633.16-.992.567-1.403.775-.436.221-.778.584-1.02.646l-1.275-.646c-.601-.152-1.248-.129-1.913-.129-.655 0-.958.292-1.403.517-.379.192-.607.843-.765 1.162-.278.564-.51.559-.51 1.421 0 .606.419.756.255 1.421-.125.507-1.132-.444-1.275-.517-.046-.023-.826.855-1.02.904-.484.123-.545.914-.638 1.292-.105.425-.66.797-.893 1.033-.405.41-.678.728-.893 1.162-.372.753-.767.252-.893-.258-.1-.404.784-1.033-.383-1.033-.45 0-.909.461-1.275.646-.617.312-.934-.554-1.02-.904-.105-.425.364-1.125.51-1.421.273-.552.224-1.037.383-1.679.115-.465.493-.447.638-1.033.166-.674 1.028.145.51-.904-.287-.582.478-1.56.638-1.937.282-.665.669-.541 1.275-.387.556.141 1.336 0 1.913 0 .831 0 .884-.25 1.275-.646.335-.339.807-.603 1.148-.775.611-.309.98-.088 1.403-.517.266-.27 1.063-.474 1.403-.646.529-.268.978-.248 1.53-.387.495-.125 1.017-.321 1.403-.517.632-.32-.791-.749-.893-.775-.542-.137-.938-.258-1.658-.258h-1.913c-.621 0-1.019.257-1.53.517-.469.238-.91.359-1.53.517l-1.403.517c-.441.112-.431.601-1.275.387-.375-.095-.889.387-1.53.387-.672 0-.88-.336-1.02-.904-.161-.651.38-.893.51-1.421.134-.543-1.036.396-1.53.646l-1.275.646c-.529.268-.814.437-1.148.775-.681.69-2.032 1.565-3.188 2.067-.451.196-.712.554-1.148.775-.388.196-.638.776-.893 1.033-.42.425-.665.702-.893 1.162-.294.595.746-.184.893-.258.919-.466.413.227.128.517-.39.395-.692.572-1.02.904-.39.395-.564.701-.893 1.033-.522.529-.768.252-1.02-.258-.022-.044-.917 1.058-1.02 1.162l-.893 1.162c-.507.513-.624.836.128.646.448-.113-.493.629-.638.775-.517.524-.36-.038-1.02.129-.365.092-.813.694-1.02.904-.64.648-.334.586-.255.904.07.286.311.331-.255.904-.39.395-.692.572-1.02.904-.376.381-.558.743-.765 1.162-.198.4-.718.727-1.148 1.162-.162.164.357.438.255.646l-.638 1.292c-.327.663.87-1.192 1.275-1.808.343-.521.57-.965.893-1.292l1.02-1.033c.242-.245.026.723-.128 1.033-.244.493-.545.716-.765 1.162l-.893 1.033c-.238.482-.662.565-.893 1.033-.338.684-.521.473-.383 1.033.11.444.691-.624.893-1.033.261-.528.827-.121 1.02-.904.142-.574.688-.723.893-.775.333-.084.56.432.893.517.444.112-.51.828-.51 1.292 0 1.205-.734-.515-1.02.646-.092.371-.588.803-.765 1.162-.244.493-.545.716-.765 1.162-.288.584-.638-1.024-.638-1.292 0-.712-.057-.33-.51.129-.316.32-.484.981-.638 1.292-.233.472-.103 1.261 0 1.679.179.727.747.462 1.148.258.639-.324.383.271.383 1.033 0 .879-.646.387-1.275.387-.351 0-.674.978-.765 1.162-.217.439-.145 1.234-.255 1.679-.169.685-.578.952.255 1.162.29.073.793-1.027.893-1.162.266-.359.255-1.101.255-1.679 0-.604.128 1.204.128 1.808 0 .818.715.387 1.275.387.485 0-.051 1.201.383 1.421.723.366.025.504-.51.775-.09.045.51.65.51.904l-.765.904c0 .879.105 1.011.51 1.421.39.395.564.701.893 1.033.491.497.098 1.064-.128 1.292-.25.254-.591-1.221-.893 0-.082.334 0 1.313 0 1.679 0 .63-.339 1.075-.51 1.421-.212.429-.619.736-.638.775-.202.409.691.624.893 1.033.326.66.866.285 1.148 0 .714-.723.51.054.51.775 0 .843.39.779.893 1.033.912.462.765.453.765 2.067 0 .57.443.897.638 1.292.299.606.567.545.383 1.292-.133.538-.27.974-.128 1.55.131.53.568.704.893 1.033.376.381 1.258.009 1.53-.129.234-.118.128-1.433.128-1.808 0-.143 1.02-.743 1.148-.775.063-.016.255 1.382.255 1.679 0 .5-.841.209-.638 1.033.124.503.765.087.765 1.162 0 .971.667.228.893 0 .318-.322 1.091-.359 1.403-.517.455-.23-.456-1.074-.51-1.292l-.638-1.292c-.187-.756.928.33 1.02.517.245.495.489.77 1.02.904.549.139.063-1.813.383-.517.224.909 1.385.332 1.785.129.307-.156.592-.687 1.02-.904.046-.023 1.017.838 1.148.904.596.302-.24.874-.383 1.162-.404.818 6.714 4.825 6.887 4.65.518-.524.973-.177 1.275.129.78.79.931.268 1.658-.258.032-.023-1.079.119-.638-.775.226-.458.111-1.387.255-1.679.23-.465.402.601 1.084.452.542-.118.383-.472.383-1.033 0-.328.661-.022.829-.065.882-.223.411-.438 1.02-.129.123.062 0 1.728 0 1.937 0 .481-.14.954-.255 1.421-.083.337-.714-.026-1.02.129-.252.128-.383-.545-.383.775 0 .576-.638.407-.638 1.292 0 .604-.526.387-1.275.387-.385 0 .145-.887-.128-1.162-.527-.534-.933.293-1.02.646-.192.78 4.904 1.73-.128 1.162-.597.302-.348.845-.128 1.292.121.245 14.57-10.241 14.666-15.112.012-.623.39-1.93.51-1.808.268.271 1.611.129 2.041.129.666 0 1.286-.132 1.785-.258.941-.238.206-.529-.255-.646-.776-.197-.96-.068-1.403-.517-.414-.42-.055-.332.383-.775.013-.013-.519-.547.383-.775.588-.149.638-1.008.638-1.55 0-1.07.543.195.638.387.185.375.87.764 1.148.904.005.002.613-1.243.638-1.292.213-.431.383-.979.383-1.55 0-.766-.922-.219-1.275-.129-.666.169-.893.088-.893-.775 0-.866.092-.888.255-1.55.029-.119.876-.612 1.02-.904.155-.314-.635-.129-1.275-.129-.861 0-.204-.788.255-.904.674-.171 1.205.144 1.658.258.3.076.255-.591.255-.904 0-.439.855.365 1.275.258.721-.183.157-.567 1.02-.129.43.218 1.157-.392 1.403-.517.565-.286.784-.415 1.403-.258.474.12.878.631 1.148.904.492.499.395.707 1.148.517.699-.177 1.218.147 1.658.258.463.117.49.738 1.148.904.625.158 1.109-.01 1.658.129 1.048.265.75-.288.51-.775-.072-.147.62-.963.638-1.033.101-.409-.514-.761-.383-1.292.011-.043 2.293-.259.765-.646-.574-.145-1.198-.116-1.658 0-.719.182-.125 1.294-1.02.387-.643-.652.276-.942.638-1.033.402-.102 1.376-.104.255-.387-.609-.154-.954-.32-1.275-.646-.219-.222-.592-.182-.893-.258l.638-.387c.307-.187.417-1.068.638-1.292.336-.34.814.529 1.275.646.752.19.4.757.128 1.033-.584.592.643.904 1.02.904.426 0 .638 1.342.638 0 0-.48.41-1.033.893-1.033.768 0 .677-.614.51-1.292-.186-.755-.638-.563-.638.258 0 .835-.563.646-1.02.646-.796 0-.985-.117-1.148-.775-.128-.517 1.06.149 1.53.387.49.248-.316-.806-.51-.904-.243-.123.703-.451.51-.646-.345-.35-1.272.45-1.403.517-.693.351-.939-.153-1.403-.387-.575-.291-.537-.588-1.275-.775-.754-.191-.903.428-1.02.904-.114.46.859.292.128 1.033-.569.577-.905-.4-1.148-.646-.358-.363-1.084-.258-1.658-.258-.781 0-.339-.824-.255-1.162.095-.385-.706-.844-.893-1.033-.553-.56-.605-.263-.765.387-.178.722-.504.904.51.904.855 0 .298.86.128 1.033-.541.548-.997-.306-1.403.517-.335.679-.935.172-.51 1.033.201.407-.456.496-.128 1.162.256.519.501.738.638 1.292.261 1.055-.348.951-1.02 1.292-.805.408-.765-.205-.765-.904 0-.654.128-1.07.128-1.808 0-.886-.184-.854-.893-1.033-.659-.167-1.351.103-1.658.258-.671.34-.458.349-1.148 0-.417-.211-.255-1.081-.255-1.679 0-.533-1.02.258-1.53.387-.675.171-1.352-.103-1.913-.387zm-13.534 18.186c.123.466-.619.642-.578.928.02.158.083.305.149.448-.082.245-.304.393-.473.573-.202.177-.412.385-.461.663-.08.369.412 1.828.292 2.191-.06.121-.628-.941-.714-1.038-.157-.127-.306-.294-.518-.316-.284-.068-.699-.023-.98-.106-.18-.11-.345-.435-.368-.63-.027-.202-.046-.417.034-.61.083-.101.226-.115.347-.099.125-.024.168-.202.088-.294-.092-.242-.159-.738-.152-1.007.034-.248.23-.426.414-.572.184-.139.421-.221.546-.428.065-.092.091-.229.212-.265.135-.004.215.13.263.239.083.175.283.679.31.871-.066.109.085.269.19.184.215-.144.331-.387.52-.559.154-.098.591-.221.878-.173z" fill="url(#l)" fill-rule="evenodd"/><path d="M21.047 58.7c.046-.023 1.016.838 1.147.905.596.302-.24.875-.382 1.163-.403.818.802.646 1.274.646.788 0 .417.892.382 1.034-.151.613-.286.842 0 1.421.272.552-.127.801-.127 1.551 0 .724-.579.646-1.274.646-.791 0-1.089-.158-1.657.129-.11.056-.572 1.161-.637 1.292-.214.434-.813.606-1.147.775-.488.248.071 1.437.127 1.551.206.418.759.505 1.019 1.034.35.709-.09 1.071.382 1.551.405.411.329.73 1.019.905.627.159.388-.066 1.147-.258.438-.111.573.71.892 1.034.163.165.127 1.162.255 1.421.32.648 1.047-.405 1.274.517.188.762.87.14 1.147 0 .433-.22.166.982.382 1.421.244.495 1.191.433.51-.258-.352-.356.389-.932.51-1.421.048-.193-1.411-.358-1.529-.388-.783-.198-.344-.814-.127-1.034.381-.386 1.103.686 1.147.775.001.002.542-.905 1.019-.905.936 0 .673-.61.255-1.034-.776-.787-.011-.635 0-.646.21-.213.759.27.892 0 .398-.808.382.647.382 1.034 0 .157 1.051-.186 1.274-.129.884.224.783-.074.892-.517.024-.097-1.084-.711-1.147-.775-.538-.546-.765-.392-.765-1.292 0-1.012-.153-1.008-.637-.517-.415.421-.538-.158-.892-.517-.413-.419-.637 1.229-.637 0 0-.527-.321-1.04-.51-1.421-.218-.443.055-1.516.127-1.809.175-.709.156-.129.765-.129.365 0 .719-.858.892-1.034.517-.524.972-.177 1.274.129.779.79.93.268 1.657-.258.032-.023-1.078.119-.637-.775.226-.459.111-1.388.255-1.68.23-.466.402.601 1.083.452.541-.118.382-.472.382-1.034 0-.329.661-.022.828-.065.882-.224.41-.438 1.019-.129.123.062 0 1.729 0 1.938 0 .482-.14.954-.255 1.421-.083.337-.713-.026-1.019.129-.252.128-.382-.545-.382.775 0 .577-.637.407-.637 1.292 0 .605-.525.388-1.274.388-.385 0 .145-.887-.127-1.163-.527-.534-.932.293-1.019.646-.192.78.866.659-.127 1.163-.597.303-.348.845-.127 1.292.121.245.874.766 1.147.905.19.096.494 1.147.637 1.292.17.172.413-.132.637.775.1.404.326.159.51.905.233.944-.635.646-1.147.646-.708 0-.794.447-1.019.905-.353.715.15 1.137-.765.905-.536-.136-.849-.817-.382.129.179.363-.409.748.127 1.292.421.427.407.775 1.147.775.873 0 .995-.079 1.274-.646.305-.618.432-.775 1.274-.775 1.508 0-.316.267-.127 1.034.134.543 1.033.352 1.402.258.486-.123-1.117-.994.255-.646.607.154.892 0 1.274-.388.358-.363.704-1.034-.127-1.034-.568 0-1.153.128-1.657 0-.573-.145-.922-.258-1.657-.258-.971 0-.06-.585.127-.775.192-.195.266-.523.51-.646.231-.117.649.105.765-.129.095-.193-.304-.335-.51-.388-.406-.103.851.217 1.147.517.24.244.715.154 1.019 0 .226-.115 1.893.757 2.166 1.034.302.306.381.001.765-.388.239-.243-.364-.96-.255-.517.125.507 1.276.193 1.529.129.482-.122.312-.646 1.274-.646l1.784-.129c.709 0 1.159-.391 1.657-.517.406-.103.091 1.163.51 1.163.288 0 .62-1.017.765-1.163.603-.612.765-.061.765.646 0 .45.878-.187 1.274-.388.51-.258.124-1.169 0-1.421-.346-.701.148-.802.765-.646.461.117.081-1.081-.255-1.421-.286-.29-1.095-.439-1.402-.517-.573-.145-1.13-.073-.255-.517.716-.363.593-1.242-.127-1.68-.402-.244.289-1.102.382-1.292.271-.549.551-.688.892-1.034.389-.395.691-.572 1.019-.905.365-.37.382-.95.382-1.551 0-.512.127-1.139.127-1.809 0-.117-.82.545-1.019.646-.599.304-.93.304-1.529 0-.61-.309-.737-.535-.892-1.163-.222-.9.181-1.015.765-1.163.489-.124.711 1.074.765 1.292.151.612 0-.787 0-1.163 0-.531-.48-.975-.637-1.292-.228-.462-.593-.635-1.147-.775-.597-.151-.8-.46-1.019-.905-.265-.538-.255-.995-.255-1.68-1.266.642-1.863.656-3.315.656-.407 0-.878-1.809-.961-2.143-.191-.776-.576-1.646-.576-2.533 0-.686-.845-1.441-1.153-1.753-.658-.667-.937-.779-2.113-.779-.898 0-1.08.9-1.537 1.364-.634.643-1.264.259-1.537 1.364-.204.826-.625 1.268-.961 1.948-.389.789.414.803.192 1.705-.194.787 1.337.907-1.393 2.728-.698.465.863 2.016.528 2.435-.495.621-.933.202-1.249-.438-.395-.801.607-.599-.288-.779-.79-.159-2.302-1.216-2.978-1.559-.829-.42-1.072-.584-2.305-.584-1.141 0-2.106.288-2.978.731-.258.131-.884.858-.569 1.516z" fill="url(#m)" fill-rule="evenodd"/><path d="M84.882 34.946c.427.224.783.601 1.258.721.512.055.764-.499 1.153-.724.176.223-.204.709-.228 1.029-.042.296-.335 1.003.142 1.016.391-.178.696-.513.961-.846.145-.352.519-.714.835-.298.248.427.657.169.93-.084.265-.246.458.026.236.264-.229.457-.593.886-.607 1.419-.024.302.393.655.394.807-.226-.003-.687-.299-.779-.121.278.445.652.829 1.054 1.162.211.093.884.462.356.58-.269.13-.738-.16-.881.117.093.494.415.904.63 1.35.097.212.333.582.275.713-.268-.142-.68-.292-.904.002-.258.378-.018.886-.247 1.268-.345-.095-.42-.6-.608-.885-.32-.624-.405-1.392-.953-1.879-.486-.502-.874-1.092-1.372-1.584-.546-.594-.602-1.432-.841-2.168-.218-.588-.658-1.077-.769-1.709l-.032-.15z" color="#000" fill="#e5e5e6" fill-rule="evenodd" overflow="visible"/><path d="M58.409 25.327c.578.243.989-.114 1.53-.387.523-.265.475-.605 1.148-.775.155-.039.238-1.609.255-1.679.178-.72-.043-1.119.638-1.292.49-.124.711-.591 1.02-.904.286-.289 1.287.258 1.658.258.837 0 1.137-.011 1.53.387.441.447.766.485 1.403.646.728.184.912.527 1.403.775.421.213 1.539-.067 1.785-.129.84-.213-.499-1.157-.51-1.162-.468-.237-.848-.472-1.148-.775-.518-.524-.51-.326-.51-.646 0-.134-1.443-.41 0-.775.805-.204 1.08-.069.51-.646-.484-.49 1.128.119 1.148.129.593.3.778.401 1.148.775.352.356-1.18.066-1.403.517-.158.321.831.842 1.02 1.033.636.644-.407.866.765 1.162.272.069.926-.938 1.02-1.033.571-.578.765-.316.765.258 0 .502-.861.783.128 1.033.7.177.708.491.51 1.292-.147.596-.383.821-.383 1.679 0 .532.564.789 1.02.904.705.178.757.163 1.403 0 .497-.126-.252 1.047-.128 1.55.119.483.896.778 1.148 1.033.455.461-.368.897-.638 1.033-.648.328-.315.913-.128 1.292.27.547.533.692.765 1.162.335.679.668.824-.255 1.292-.307.155.37.788.128 1.033-.54.547-.751.287-.383 1.033.092.187 1.039-.129 1.53-.129.475 0-.043.99-.255 1.421-.142.287 1.201 0 1.403 0 .519 0 1.014.622.765-.387-.167-.678-.104-1.081.128-1.55.05-.101 1.338.839 1.403.904.361.365.228-1.088 0-1.55-.212-.43-.405-1.124-.51-1.55-.248-1.005.825-.228 1.02-.129.651.33 1.148-.081 1.148.904 0 .456-.51.766-.51 1.421 0 .613.879.258 1.403.258.629 0 .765.493.765 1.162 0 .458-.911.46-1.02.904-.039.157.7.897.765 1.162.139.563 0 1.353 0 1.937 0 .544.754.646 1.275.646.488 0 1.136.288 1.53.387l.128.775c1.107.28.772-.026.638.517-.02.081-.253 1.375.569 1.375.591 0 1.429.347 1.854.562.302.153 0 1.351 0 1.421 0 .548.906.672 1.148 1.162l.638 1.292c.252.509.446.839.765 1.162.485.491.615-.258 1.403-.258.536 0 .638.845.638 1.033 0 .464-.824.139-.383 1.033.209.422.405.995.51 1.421.143.581.255.935.255 1.679l.128 1.808-.255 1.808c0 .755-.135 1.191-.255 1.679-.165.669-.262.917-.51 1.421l-.638 1.292-.73 1.599c-.26.527-.578.677-.785 1.097-.2.404-.303 1.313-.398 1.696-.133.541-.422.904-1.02.904-.265 0 .099-1.622-.51-.387-.257.521-.062 1.288-.255 1.679-.177.358-.883.641-1.148.775-.49.248-.826.371-1.403.517l.128-1.292c0-.904-.457-.561-.638-1.292-.111-.452.812-.928 1.02-1.033.52-.263 1.148.055 1.148-.775 0-1.131.337-.505.578-.017.045.091 1.22-.681 1.22-1.008 0-.497.855-.843 1.03-1.198.427-.866-1.574-1.243-1.936-.877-.532.539-.517.578-1.148.258-.59-.299-.233-.737-.893-.904-.01-.003-.914.925-1.02 1.033-.548.555-1.016.25-.638-.517.332-.672.171-.731-.255-1.162-.518-.524-.161-.999.128-1.292.424-.429.746-.521 1.275-.387.38.096-.542.597-.893.775-.772.391 1.078.646 1.275.646.609 0 .048-1.372-.383-1.808-.438-.444-.502-.654-1.02-.129-.186.188-.805.17-1.148.517-.61.618-1.02-.134-1.02-.646 0-.626.552-.786 1.02-.904.352-.089.763.127 1.02.387.32.324-.573-.71-.893-1.033-.458-.463-.47-.614-.638-1.292-.163-.661.599-.775 1.148-.775.573 0 .51.864.51 1.421 0 .93.221.527.383-.129.188-.761-.201-1.182-.383-1.55-.234-.474-.548-.722-.765-1.162-.26-.526.529-1.181-.255-.387-.676.685-.339.171-.128-.258l.638-1.292c.215-.435.39-.934.51-1.421.101-.408.584-.795.765-1.162.24-.486.185-1.149.383-1.55.312-.632.08-1.081.638-.517.395.4.356 1.013.255 1.421-.173.7-.11.939 0 1.162.223.451.389-.932.51-1.421l.255-1.679c.219-.888-.238-1.167-.765-1.033-.289.073 0 .603 0 .904 0 .433-.893-.323-1.275-.129-.357.181-.497 1.006-.638 1.292-.271.549.003 1.046.128 1.55.091.368-.215.34.128 1.033.169.343-1.144.004-1.403-.258-.758-.768-.297.819-.255.904.562 1.139-.564.333-.765.129-.346-.351-.753-.246-1.148-.646-.152-.154-.736.413-1.148.517-.76.193-.508-.637-.638-1.162-.117-.473-.805-.598-1.02-1.033-.494-1.001-.617-.047-.51.387.172.696.383.904.128 1.421-.366.742.041 1.023-1.02 1.292-.282.071-.577 1.045-.638 1.292-.163.662-.027.924.128 1.55.06.242-.408 1.008-.51 1.421-.196.794.238 1.183.51 1.55.397.537.413.912.255 1.55-.116.468.965.517 1.403.517.835 0 1.138-.01 1.53.387.538.545-.203.917.765 1.162.786.199.722.471.893 1.162.052.209-.506 1.154-.638 1.421-.207.418-.041 1.456-.128 1.808l-.383 1.55c-.042.168.51.907.51 1.421 0 .721.011.881-.255 1.421-.275.557-.214.861-.893 1.033-.929.235-.271-.614-.128-.904.28-.567.23-.933.383-1.55.115-.467-1.063-.215-1.275-.646-.005-.011-.602.628-.893.775-.346.175-.748-.887-.893-1.033-1.156-1.171-.792-.027-.383.387.432.437.39.876.255 1.421-.125.505-1.04-.278-1.403-.646-.605-.613-.69-.334-.128-.904.434-.439.955-.136.765-.904-.108-.436-.845.497-1.275.387-.384-.097-1.04-2.07-.128-4.65.144-.407 1.074-.043 1.456-.236.442-.224.602-.225.967-.41.733-.371-.131-.985-.143-1.033-.035-.142-.728-.753-.877-.904-.438-.444-.067-.768-.51.129-.244.495-.512.776-1.02.904-.651.165-.638-.707-.638-1.292 0-.9-.224-1.131-.638-1.55-.331-.335-.878.287-1.275.387-.857.217-.765-.483-.765-1.162 0-.48.122-1.184 0-1.679-.066-.269-.725.129-1.02.129-.452 0 .573-.71.893-1.033.478-.484 1.658-.65 1.658-1.421 0-.685.003-1.169.128-1.421.223-.451-.958-.291-1.403-.517-.549-.278-.497.102-.765.646-.244.493-.937-.562-1.02-.646-.679-.687-.202-.387-1.275-.387-.124 0-.578.19-1.02-.258-.508-.515-.137-.902.383-1.033.752-.19.886.747.893.775.121.489.389-.932.51-1.421.03-.121-1.075-1.366-1.53-.904-.302.306.064.905-.128 1.292-.223.451-.51-.917-.51-1.421 0-.521-.826-.398-.638-1.162.083-.334.429-.717.255-1.421-.069-.281 1.079.109.893-.646-.118-.48-.507-.901-.765-1.162-.486-.493-.783-.572-.638-1.162.093-.376 1.077.502.51-.646l-.765-1.292c-.296-.6-.51-.566-.51-1.162 0-.347.778.116 1.02-.129.493-.499.413-.585.765.129.436.883.51-.043.51-.646 0-.731.339-.968.765-1.292l.51.387c.452-.457.529-.517 1.148-.517.225 0 .556.945 1.403.517.542-.274-.037-.927-.128-1.292-.021-.084-1.183.599-1.275.646-.929.47-.544-.448-.383-.775.36-.73-.5-.099-.893 0-.573.145-.923.258-1.658.258-.551 0-.846-.376-1.403-.517-.689-.174-1.077-.352-1.658-.646-.445-.225-.914-.522-1.403-.646l-1.275-.646c-.77-.195-.087.558.128.775.552.559-.564.646-1.02.646-.911 0-.167-.755.128-.904.021-.01-.898-.651-1.148-.904-.554-.561-.437-.295-.638.517-.099.4-.949-.029-1.148.775-.088.357-.668-.298-1.02-.387-.446-.113-.341.817-1.02.129-.491-.497-.526-.582-.638-1.033-.136-.549 1.099.258 1.658.258.512 0-.101-1.086.128-1.55.161-.326-.1-1.272 0-1.679.054-.22.624-.59.765-1.162.111-.45-.177-.834-.128-1.033.058-.233.51-.564.51-1.421 0-.661-.814-.258-1.403-.258-.932 0-.155.074-.638-.904-.259-.524-.087-.877.128-1.421z" color="#000" fill="url(#n)" fill-rule="evenodd" overflow="visible"/><path d="M95.903 35.401c-.499-1.011.75 2.133 1.02 3.229.269 1.091-.945.154-1.148 0-.051-.039.393 1.302.51 1.421.41.416-.18 1.086-.383 1.292-.259.262-.605.838-.765 1.162-.267.541-.87.387-1.53.387-.863 0-.953-.578-1.403-1.033-.456-.462-.102-.826-.765-1.162-.471-.239-.84-.797-1.02-1.162-.24-.486-.539-.705-.765-1.162-.426-.863-.092-.499.383-.258.97.491.238-.681.128-.904-.367-.744-.751-.417-.383-1.162.271-.549.85-.474 0-.904-.552-.28-.765-.441-.765-1.162 0-.522.492-.886.765-1.162.443-.449.431-.954.765-1.292.386-.391.882-.387 1.53-.387.779 0 .949.416 1.403.646.396.201.634.771.893 1.033.39.395.437.83.765 1.162.506.512.636 1.257 1.275 2.067" color="#000" fill="#504f55" fill-rule="evenodd" overflow="visible"/><path d="M71.672 10.86c-.615.156-.308 1.314-.128 1.679.301.609-.48.105-.893 0-.57-.144-.625-.455-1.403-.258-.851.216-1.15-.134-.765.646.357.723-.828.226-1.02.129-.399-.202-.893-1.244-.893 0 0 .635-.529.78-1.02.904-.811.205-.893.086-.893 1.033 0 .838-.151.698-.765.387-.521-.264-.913-.231-1.53-.387-.565-.143-.95-.287-1.403-.517-.543-.275-.465-.602-1.148-.775-.532-.135-.891-.451-1.275-.646-.504-.255-.801-.424-1.275-.904-.567-.574-.703-.708-.255-1.162.64-.648-.121-.389-.638-.258-.472.119-.732.508-1.275.646-.73.185-.859.009-1.02-.646-.18-.729.563-.684-.383-1.162-.53-.268-1.496-.217-2.168-.387-.664-.168-.952-.37-1.53-.517-.596-.151-1.091-.144-1.658 0l-1.403.646c-.502.127-.896.454-1.275.646-.556.282-1.178.049-1.53-.129-.615-.311-1.001.055-1.403.258-.812.411-.523.142-.128-.258.424-.429.546-.461 1.275-.646 1.003-.254-.517-.258-.893-.258-.798 0-.951.241-1.53.387-.847.214-.708.222-1.148 0-.36-.183 2.179-.558.128-.904-.76-.128-.122-.781.128-1.033.181-.183-1.18-.129-1.53-.129-.998 0-1.036-.146-1.275-.387-.057-.058 1.563-.258 1.785-.258.56 0 1.102-.279 1.53-.387.792-.201.081.646 1.148.646.207 0 .647-.81 1.02-.904.434-.11.66.156 1.275 0 .693-.176 1 .14 1.53-.129.394-.2.595-.689 1.02-.904.7-.354.321.785.383 1.033.046.186.865.403 1.02 1.033.111.45.831-.629 1.275-.517.438.111.521.32 1.275.129l1.658-.258c.638-.162.309-.85 1.02-.129.523.529-.083.862.765 1.292.48.243 1.111.281 1.53.387.535.135.851.431 1.275.646l1.02.904c.924.468.298-.603.128-.775-.657-.665.43-.819.765-.904.54-.137 1.935 1.044 2.423 1.292.489.248.976-.601 1.148-.775.244-.247 1.442.204 1.658.258.767.194 1.18.39 1.02-.258-.125-.505 1.278.141 1.403.646.057.232 1.45.129 1.785.129.229 0 .958.679 1.148.775.613.31.753.4 1.148 0 .698-.707.765.853.765 1.033z" color="#000" fill="url(#o)" fill-rule="evenodd" overflow="visible"/><path d="M5.1 51.482c-.738.274-.947 1.186-.915 1.901.041.639-.032 1.344.382 1.883.292.469 1.03.814 1.471.348.502-.647.309-1.522.329-2.282.035-.806-.406-1.729-1.267-1.851z" color="#000" fill="#4f4f4f" fill-rule="evenodd" overflow="visible"/><path d="M49.935 11.305c0 .411-.628.744-1.403.744s-1.403-.333-1.403-.744.628-.744 1.403-.744 1.403.333 1.403.744z" color="#000" fill="#4d4d53" fill-rule="evenodd" overflow="visible"/><path d="M51.777 49.351c.306-.444.605-1.03.765-1.679.194-.786.7-.39.893 0 .293.593.329.821 1.02.646.855-.217-.346-.95-.51-1.033-.689-.349-.49-.667-.128-1.033.518-.524.737-.287 1.148.129.184.186.415 1.228.51 1.421.226.459.394-.881.255-1.162-.378-.765.736-.718 1.02-.646.867.22.198 1.794.128 1.937-.313.633-.435.668-.128 1.292.274.555.537.668.383 1.292-.032.129-1.516.129-1.785.129-.092 0-.95.833-1.02.904-.46.466-.346.733-1.02.904-.608.154-.902-.519-1.403-.646-.5-.127-.638-.76-.638-1.292 0-.502.181-.606.51-1.162z" color="#000" fill="#5d5c63" fill-rule="evenodd" overflow="visible"/><path d="M79.196 22.227c.237.24.999-.021 1.403.387.639.648-.519 1.1-.765 1.162-.728.184-.71-.147-1.02-.775-.132-.267-1.243-.355-.51.387.634.642.077.517-.765.517-.122 0 .637.774.765.904.106.108-1.365.084-1.53 0-.575-.291-.74-.415-.893-1.033-.183-.74.621-.783-.383-1.292-.021-.011.092.869-.51.258-.645-.653.345-1.033-.638-1.033-.745 0-.369.459-1.02.129-.309-.156.87-1.011.893-1.033.157-.159 1.387-.315 1.53-.387.443-.225-.645-.805-.765-1.292-.063-.254.514-.066.765-.129.299-.076.455.073.893.517.315.319.38-1.165 1.403-.129l-.128 1.033c.364.369.657.415-.255.646-.429.109 1.415 1.116 1.53 1.162zm18.365 21.441c.401-.406.018 1.273-.383 1.679-.419.425.116 1.268.255 1.55.271.55.048 1.193-.128 1.55-.256.518-.406 1.127-.51 1.55-.145.588-.383.705-.383 1.55 0 .482 1.02.068 1.02.904 0 .81.638.041.638-.646 0-.494-.638-.882-.638-1.679v-1.937c0-.33 1.134.747.51-.517-.335-.678.574.387.638.517.248.502-.128-1.118-.128-1.679 0-.298.548-.62.383-1.292-.019-.078-1.217-1.476-1.275-1.55z" color="#000" fill="#5f5e64" fill-rule="evenodd" overflow="visible"/><path d="M86.466 65.755c0-.578-.51 1.033-.765 1.55-.313.634.054.627.638.775.751.19.784.349.51.904-.23.466-.567.762-.765 1.162-.268.544-.783.586-1.02.646-.461.117.425-.861.638-1.292.311-.63-.193-1.166-.383-1.55-.266-.539-.298-.99-.128-1.679.323-1.308 1.301-.473.893-1.162-.128-.215.383.395.383.646z" color="#000" fill="#69686f" fill-rule="evenodd" overflow="visible"/><path d="M84.553 17.448c-.05-.084-1.172-.658-1.403-.775-.223-.113-.599-1.123-.765-1.292-.429-.435-.877-.703-1.275-.904-.522-.264-.514-.648-1.02-.904-.991-.502-.776.496-.638.775.125.253 1.102.558 1.275.646.652.33.698.456.255.904-.492.499.145 1.199.255 1.421.295.598.354.746.765 1.162.677.686.712.021.51-.387l-.893-1.033c-.424-.86.28-.769.765-.646.268.068.859.74 1.02.904.331.335.634.233 1.148.129zm1.403-.194c-.503-.737-1.584-1.962-1.148-.194.053.213.935.151 1.148.194z" color="#000" fill="#5f5e64" fill-rule="evenodd" overflow="visible"/><path d="M21.424 83.192c-.138-.557-1.151-.131-1.658-.387-.736-.373-.489.601-.383 1.033.176.713 1.623.517 1.785.517.663 0 .491-.566.255-1.162z" color="#000" fill="#56555b" fill-rule="evenodd" overflow="visible"/><path d="M21.552 80.479c.736 0 .638-1.172.638-1.937 0-.753-.477-.641-.638-1.292-.182-.736 1.363.089 1.403.129.302.306.861-.234 1.275-.129.414.105-.319.905-.128 1.292.166.336 1.622-.249 1.658-.258.692-.175-.139.787-.255.904-.464.47.027.83.255 1.292.382.774-.135.906-.638 1.033-.289.073-.799-.973-.893-1.162-.227-.46-.728-.609-1.02-.904-.435-.441-.56.23-.765.646-.145.293-.592.266-.893.387zm6.249-1.033c-.337.682.927.913 1.403 1.033.497.126-.003-1.047-.128-1.55-.3-1.217-.849.603-1.275.517zm4.081-.517c-.155-.627.96.874 1.53 1.162.444.225-.243-.769-.51-.904-.444-.225-.361-.258-1.02-.258zm1.275 2.713c-.796-.403-1.113-.247-.893.646.155.628 1.177.057 1.403 0 .48-.122.952.611 1.275.775.512.259 1.284-.263 1.53-.387.412-.209-.639-.324-1.02-.517-.608-.308-.822-.517-1.53-.517h-.765zm-9.692 3.229c-.731 0-.765-.492-.765.904 0 .763.58 1.009.765.258.065-.262 0-.981 0-1.162zm-7.397-8.008c.092-.374-1.02.132-1.02.517 0 .285.979.69 1.148.775.382.194-.044-.867-.128-1.292zm0 3.358c.496.251-.645-.919-.893-1.421-.525-1.063-.709.357-.638.646.166.672.011.675-.383.775-.619.157 1.366.332 1.913 0 .408-.248-.206 1.304.255 1.421.764.194.501-.983-.255-1.421zm1.403-9.558c.264.067-.576.378-.51.646.068.274 1.111.563 1.275.646.205.104.349 1.414.383 1.55.1.404.638 1.295.638.258 0-.776-.279-.952-.51-1.421-.326-.66-.467-1.024-1.275-1.679zm-10.458-7.492c-.213-.431.177 1.175.638 1.292.888.225-.646-1.332-.765-1.937-.116-.586-.621-.87-.893-1.421-.45-.911-1.329-.054-.255 1.033.422.427.695.563 1.275 1.033zm7.269-1.55c.285.289-.563.797-.383 1.162.302.612.295.864-.128 1.292-.243.247.491 1.239.765.129.186-.755.199-.876.765-1.162.104-.053-.76-.981-1.02-1.421z" color="#000" fill="#6b6a71" fill-rule="evenodd" overflow="visible"/><path d="M2.996 49.868c-.876.799-.221 1.586-.128 1.776.106.215.533-.25.701-.42.179-.181-.107-.797-.128-.84-.136-.276-.023-.345-.446-.517z" color="#000" fill="#56555b" fill-rule="evenodd" overflow="visible"/><path d="M60.449 18.868c-.296.517-.008 1.358-.765 1.55-.251.064-1.277-.453-1.403-.517-.612-.31-.325-.725-1.148-.517-.393.099-.312 1.394-.383 1.679-.125.505-.121 1.189 0 1.679.092.371.685.823.893 1.033.43.436.638.778.765 1.292.119.48.166 1.317.255 1.679.02.081-.568 1.15-.638 1.292-.377.763-1.048-.157-1.275-.387-.377-.382-.7-.629-1.275-.775-.484-.123-.749-.642-1.275-.775-.743-.188-1.027.286-1.148.775-.194.788.467.86.765 1.162.518.524.424.733 0 1.162-.388.393-1.195-.565-1.275-.646-.306-.31-.423-1.068-.51-1.421-.112-.452-.823-.446-1.148-.775-.45-.455.031-1.355.128-1.55.347-.702 2.182-.129 2.806-.129.452 0 .489-.829.893-1.033.823-.417.393-.129-.51-.129-.476 0-.99.412-1.403.517-.84.213-.362-.947-.255-1.162.352-.713.273-.886-.128-1.292-.331-.335-.949.115-1.403 0-.411-.104-.792-.673-1.02-.904-.425-.431-.8-.552-1.148-.904-.535-.542.427-.927.638-1.033.468-.237 1.058-.258 1.658-.258.782 0 .893-.28.893-1.033 0-.707-.492-.775.638-.775.505 0 .827.5 1.403.646.171.043 1.031-.387 1.53-.387.668 0 1.132-.066 1.275-.646.272-1.101.876.578.893.646.223.903.013.917.51 1.421.477.483.832-.658.893-.904.175-.71 1.117.652 1.148.775l.128.646zm-7.583 6.716c0 .356-.374.646-.834.646-.46 0-.834-.289-.834-.646 0-.356.374-.646.834-.646.46 0 .834.289.834.646zm3.502-3.068c0 .41-.257.743-.574.743-.317 0-.574-.333-.574-.743s.257-.743.574-.743c.317 0 .574.333.574.743z" color="#000" fill="#a8a7aa" fill-rule="evenodd" overflow="visible"/><path d="M1237.022 97.769c0 4.363-5.306 7.9-11.85 7.9-6.545 0-11.85-3.537-11.85-7.9s5.305-7.9 11.85-7.9 11.85 3.537 11.85 7.9z" transform="matrix(.134 .03 -.029 .136 -98.007 -37.501)" color="#000" fill="#959595" fill-rule="evenodd" stroke="#b9b9b9" stroke-width="2.118" overflow="visible"/><path d="M75.954 25.539c-.585.367-1.52-.037-2.09-.901-.569-.864-.557-1.861.028-2.228.585-.367 1.52.037 2.09.901.569.864.557 1.861-.028 2.228z" color="#000" fill="#a7a7a7" fill-rule="evenodd" stroke="#cacaca" stroke-width=".254" overflow="visible"/><path d="M1237.022 97.769c0 4.363-5.306 7.9-11.85 7.9-6.545 0-11.85-3.537-11.85-7.9s5.305-7.9 11.85-7.9 11.85 3.537 11.85 7.9z" transform="matrix(.08 .059 -.059 .086 -28.576 -64.389)" color="#000" fill="#959595" fill-rule="evenodd" stroke="#b9b9b9" stroke-width="3.894" overflow="visible"/><path d="M94.328 60.81c-.493-.236-.627-1.222-.3-2.204.327-.982.992-1.587 1.485-1.351.493.236.627 1.222.3 2.204-.327.982-.992 1.587-1.485 1.351z" color="#000" fill="#cacaca" fill-rule="evenodd" overflow="visible"/><path d="M90.447 70.492c-.449-.31-.426-1.304.051-2.22.478-.916 1.229-1.408 1.679-1.098.449.31.426 1.304-.051 2.22-.478.916-1.229 1.408-1.679 1.098z" color="#000" fill="#cdcdcd" fill-rule="evenodd" overflow="visible"/><path d="M1222.538 289.675c0 3.454-3.095 6.254-6.913 6.254s-6.913-2.8-6.913-6.254c0-3.454 3.095-6.254 6.913-6.254s6.913 2.8 6.913 6.254z" transform="matrix(.091 0 0 .102 -49.279 8.739)" color="#000" fill="#e7e6e8" fill-rule="evenodd" stroke="#a9a9a9" stroke-width="3.622" overflow="visible"/><path d="M63.085 65.34c-.116.171-.274.307-.415.456-.199.205-.408.409-.545.664-.065.122-.111.288-.02.409.092.098.243.088.364.064.371-.082.693-.395.753-.78.057-.337-.06-.895-.136-.813z" color="#000" fill="#ececed" fill-rule="evenodd" overflow="visible"/><path d="M68.485 74.965c.687-.348 1.103-.689 1.623 0 .43.872-1.219 1.131-1.804 1.279-.789.2-1.3.567-1.984.913-.839.425.335-.717.721-.913.648-.328.756-.931 1.443-1.279z" color="#000" fill="url(#p)" fill-rule="evenodd" overflow="visible"/><path d="M74.887 52.954c.52-.26.651 1.302-.088 1.733-.659.735-1.992.735-2.251 1.842-.305.828-.623 1.819.146 2.51.385.842 1.296.849 2.083.94 1.076-.203 1.308.984 1.849 1.653.79.048 1.566-2.392 2.59-.842.685.499.534 1.986-.187 2.238-.66.326-1.575-.269-1.85.512.027.7-.618 1.829-.595 2.85.577.658.259.158.317 1.136.3.656.96 1.513.209 1.753-.786.445-.977 1.726-1.736 2.212-.638.684-1.501 1.082-2.148 1.754-.511.384-1.683 1.026-2.107.528.499-.706 1.212-1.233 1.838-1.819.691-.396 1.217-1.011 1.898-1.414.638-.335 1.252-1.288.746-1.96-.557-.562-1.681-.634-1.764-1.594-.336-.983.768-1.58.689-2.524.039-.48-.428-1.995-.72-.847-.061.584-.765.961-.873.168-.399-.883-.178-2.09-.931-2.779-.762-.127-1.562.167-2.34.204-1.005.255-1.34 1.334-1.835 2.12-.963.581-.926-1.321-.864-1.919.077-.666-.167-2.369.99-1.756.678.326 2.047 1.366 2.189-.052.357-.982-.23-1.867-1.244-1.956-1.054-.29.024-1.53.342-2.059.591-.501.655-1.459 1.348-1.831.842-.171 1.652.316 2.481.267.57-.174 1.247-.9 1.818-1.07zm-9.532-4.379c-.323-.425-1.731-1.119-2-1.151-.374-.025-.749-.056-1.116-.134-.124.189.004.46.026.674.1.467.159 2.144.034 2.514-.125.332-.227.684-.214 1.042.135.285 1.181 1.116 1.491 1.272.269.057.384-.265.477-.46.157-.331 1.016-.988 1.217-1.134.376-.215.425-.707.401-1.1-.019-.332-.243-1.383-.318-1.524zm-2.912 8.763c.297.057.287.461.222.696-.117.474-1.438 1.107-1.537 1.321-.223.603-.312 1.248-.321 1.889-.019.36-1.322.968-1.514.691-.06-.328.855-2.081.896-2.736.08-.645-.198-1.253-.306-1.875-.067-.737.277-1.428.614-2.056.284-.222 1.59 1.475 1.946 2.07zm-3.247 8.95c.089-.101.021-.257-.118-.195-.346.088-.665.26-1 .382-.339.123-.693.266-1.06.228-.188-.031-.345-.151-.511-.237-.265-.154-.533-.357-.626-.666-.051-.175-.106-.352-.127-.533.045-.162.235 0 .325.05.46.309.876.697 1.393.91.225.097.473.05.709.061h1.015z" color="#000" fill="#ececed" fill-rule="evenodd" overflow="visible"/><path d="M43.144 83.093c-.843-1.068-1.956-2.892-3.066-4.11-1.398-1.404-2.389-3.13-3.219-4.921-.891-1.284-1.599-3.693-2.628-4.332.096.962-1.236 1.548.312 1.996 1.608.713.911 2.869 2.305 3.731.748 1.588 1.715 3.086 2.77 4.494.729.888 2.769 2.434 2.613 3.078-.688-1.74-2.713-2.685-4.46-2.747-1.372.652 1.39 1.369 2.062 1.102.884-.003 2.675 1.638.854.874-1.053.814-2.162-.967-3.039-.212.295.551 2.672.797 2.067 1.097-.727.02-2.517-1.251-2.429.044.895.554 2.333.166 2.995.856-.512.798-1.283.691-1.944 1.118-.178 1.381 2.6.092 1.147 1.28-1.586 1.57 1.757-.009 1.593.079-.911 1.091.412.762.811.719-.682 1.494-1.709 2.756-2.532 4.164-.974 1.208-1.727 2.603-2.886 3.653-.535 1.166 1.04-.477 1.33-.786 1.596-.983 2.57-2.697 3.54-4.238.511-.89 1.173-2.068 1.729-2.717.895 1.287-.076 2.881.255 4.453 1.3.939-.336 2.599.35 3.447 2.266.111 1.435-2.404 1.365-3.772-.228-.875.611-1.654.909-.468-.09.806.514 1.425.512.275-.028-.771.086-1.215.309-.171.21.586 1.512 2.767 1.244.872.014-.972-1.517-2.467-.343-3.138 1.041.595 1.863 1.338.888 2.475-1.033.511.879 2.186 1.388 1.063.987.184 1.316-.644 1.645-1.245 1.17 1.043 3.311-.039 3.99-1.038-.546.073-2.066-.652-.623-.4.606.249 2.184.543.949-.338.162-.77 2.1.171 2.882.066-.039-1.022-2.123-.544-1.504-2.063-.391-.904-1.907 1.741-1.759-.119-.519-1.158-1.044.513-.763 1.032-1.02-.559-.959 1.732-1.182.235.304-.757 1.116-2.156.504-2.821-.635.741-2.031.61-2.679.297 1.588-.023 3.135-.447 4.646.144 1.292-.015 1.849-.952 2.608-1.715.995.071-.43-2.518-.777-1.057-.445 1.622-1.768 1.08-2.835.584-.403.357-2.136.766-1.977.37 1.274-.435 3.06-.28 3.933-1.162-.245-.415.828-1.251.093-1.157.77-1.012 1.382 1.006 2.099-.426 1.717-.552 3.623-.707 5.226-1.498.91-.808 3.373-1.165 3.351-2.316-1.589.128-2.879 2.035-4.705 1.96-1.615.848-3.362 1.617-5.224 1.58-.624.04-2.404.06-.812-.365 1.323-.089 3.247.145 4.017-1.186-.51-1.084-2.968 1.285-3.27.057 1.184-1.054 2.439-1.974 3.648-2.966.924-.646 2.943-1.505 1.361-2.586.812-1.183 4.613-.828 3.535-3.038-1.82-1.493-1.966 1.803-3.414 1.886-.641-.607-2.514.214-1.924-1.164-1.19-.418-2.889 1.902-.706 1.691-.015.824.885 2.36 1.531 1.632-.361-1.346 1.499-.507.363.286-.803.588-1.72 1.741-2.702.994-1.125.512-1.146-.419-.477-1.017-1.043-.561-2.258.392-2.206-1.447-.867-.104-2.6.235-1.199-.996 1.479-1.04 1.71-2.896 2.9-4.172.776-.401 1.288-1.989-.063-1.157-.838 1.065-.911 3.593-2.339 3.73.071-1.567-1.274 1.151-.751-.532.368-.706.076-1.5-.226-.357.226 1.209-1.972 2.293-1.078 3.191.943-.053-.777 2.663-.968.666-.195-.581-.085-2.066-.902-.913-.259 1.485-1.602.527-1.037-.607-.278-1.077.861-2.295.721-3.076-1.329 1.254-.995-1.341-2.052-.968-.386 1.401 2.1 1.691 1.126 3.318-.375 1.91-.581-1.505-1.487-.077-1.273.253-.774 2.63-2.467 2.169-.322-1.442-1.206-.675-1.243.361-.939.09-1.15-1.357-2.217-.481-.723-.215-1.175-.812-1.443.365-.695.261-2.003-1.026-1.926.622.02 1.214 1.708.639 1.574 2.017.828.494.205.181.019.555.913.558 2.287 1.688 1.458 2.824-1.122-1.238-2.561-2.164-3.199-3.826-1.142-1.293-1.321-3.129-2.281-4.543-1.857-1.042-.683-2.98-1.326-4.59-.992-1.503-2.192.868-.836 1.489.772 1.435 1.492 2.797 2.189 4.264.421 1.673 1.42 3.068 2.254 4.54.939 1.18 2.299 2.083 2.924 3.494-1.371-.867-2.055-2.429-3.284-3.466-.163-.374-1.326-2.202-1.216-1.241.953 1.551 2.33 2.749 3.364 4.238.242.825 1.438 1.329 1.369 2.209z" color="#000" fill="url(#q)" fill-rule="evenodd" overflow="visible"/><path d="M71.592 18.206c.139 1.04-.502 1.984-.25 3.018.006 1.038.27 2.219-.513 3.051-.546.813-.658 1.793-.903 2.719-.244.709-.573 1.383-.704 2.129-.391.811-.364 1.739-.63 2.591-.139.751-.155 1.522-.194 2.283.195.489.38-.74.498-.951.22-.905.765-1.695.926-2.611-.039-.94.695-1.662.784-2.588.24-.763.654-1.455.873-2.227.349-.902.257-1.912.437-2.857.183-.943.274-1.889.323-2.845.174-1.002.266-2.014.395-3.024.272-.981.188-2.017.504-2.985.052-.339.549-1.74.03-.863-.409.882-.65 1.843-.929 2.776-.081.25-.893 1.241-.647 2.384z" color="#000" fill="#e3e3e3" fill-opacity=".446" fill-rule="evenodd" overflow="visible"/><path d="M44.412 75.383c0 .593-.596 1.073-1.33 1.073-.735 0-1.33-.48-1.33-1.073s.596-1.073 1.33-1.073c.735 0 1.33.48 1.33 1.073z" color="#000" fill="#54535a" fill-rule="evenodd" overflow="visible"/><path d="M1222.538 289.675c0 3.454-3.095 6.254-6.913 6.254s-6.913-2.8-6.913-6.254c0-3.454 3.095-6.254 6.913-6.254s6.913 2.8 6.913 6.254z" transform="matrix(.091 0 0 .102 -41.616 20.437)" color="#000" fill="#e7e6e8" fill-rule="evenodd" stroke="#a9a9a9" stroke-width="3.622" overflow="visible"/><path d="M1222.538 289.675c0 3.454-3.095 6.254-6.913 6.254s-6.913-2.8-6.913-6.254c0-3.454 3.095-6.254 6.913-6.254s6.913 2.8 6.913 6.254z" transform="matrix(.071 0 0 .102 -12.63 8.373)" color="#000" fill="#e7e6e8" fill-rule="evenodd" stroke="#a9a9a9" stroke-width="4.12" overflow="visible"/><path d="M1237.022 97.769c0 4.363-5.306 7.9-11.85 7.9-6.545 0-11.85-3.537-11.85-7.9s5.305-7.9 11.85-7.9 11.85 3.537 11.85 7.9z" transform="matrix(.099 .004 -.002 .105 -76.061 13.66)" opacity=".658" color="#000" fill="#959595" fill-rule="evenodd" stroke="#b9b9b9" stroke-width="3.894" overflow="visible"/><path d="M41.041 69.577c0 .494-.378.894-.843.894-.466 0-.843-.4-.843-.894s.378-.894.843-.894c.466 0 .843.4.843.894zm-1.713-7.991c0 .494-.378.894-.843.894-.466 0-.843-.4-.843-.894s.378-.894.843-.894c.466 0 .843.4.843.894zm-.722.365c0 .494-.378.894-.843.894-.466 0-.843-.4-.843-.894s.378-.894.843-.894c.466 0 .843.4.843.894zm1.082 6.576c0 .494-.378.894-.843.894-.466 0-.843-.4-.843-.894s.378-.894.843-.894c.466 0 .843.4.843.894zm-12.084-3.836c0 .494-.378.894-.843.894-.466 0-.843-.4-.843-.894s.378-.894.843-.894c.466 0 .843.4.843.894zm54.707-5.189c0 .494-.378.894-.843.894-.466 0-.843-.4-.843-.894s.378-.894.843-.894c.466 0 .843.4.843.894z" color="#000" fill="#94939a" fill-opacity=".655" fill-rule="evenodd" overflow="visible"/><path d="M6.63 65.884c.066.328.569 1.41.765 1.808.505 1.023.907-.158 1.02-.387.274-.555 1.447.949 1.53 1.033.441.446 1.158-.134 1.403-.258.702-.356 1.303-.143.51.258-.611.31-.514.767-.255 1.292.259.524.194 1.168.383 1.55.215.435-.643.517-1.148.517-.577 0-.972-.448-1.403-.775-.254-.193-1.103.559-1.275.646-.395.2-.475 1.563-.765.387-.09-.365.771-.841 1.02-.904.759-.192.551-.732-.128-.904-.793-.201-.188-.585.128-.904.325-.329-.823-.446-1.148-.775-.419-.425-.491-.696-.638-1.292-.204-.826.227-.142 0-1.292zm2.423-6.329c-.007-.029.89 1.027 1.02 1.292.309.625.63 1.259.765 1.808.242.98-.481-.1-.638-.258-.547-.553-.806-.496-1.275-.258-1.085.549-.235-.666-.128-.775.398-.403.255-1.137.255-1.808zm60.353-55.576c10.509 4.397 18.554 11.96 23.595 20.555-1.431.135-2.512-.955-3.393-1.983-.826-.908-.724-2.984-2.158-3.049-1.05.802-.046 2.042.466 2.84.643.904-.565 1.849-.902.548-.745-1.252-.814-2.787-1.682-3.972-.594-1.279-1.2-2.635-2.477-3.36-1.044-.82-2.368-1.193-3.489-1.899-1.378-.144.294 1.853.005 2.587-.698.782-.787-2.191-1.222-.597-.078.461-.31 1.232-.199.253.074-1.041.236-2.335 1.334-2.641-.19-1.672-2.308-.29-2.962-1.654-.802-.845-2.06-.602-2.88-.471-.047 1.664-1.508-.47-1.676-1.072-1.005-.55-1.999-1.309-2.962-1.796-.435.398-2.677.882-1.424-.123.578-.445 1.901-1.232.386-1.002-1.261-.065-2.525.08-3.601.8.528-1.007 1.485-2.01 2.734-1.716 1.083.14 2.807.226 2.465-1.395l.043-.855zm-43.506 2.267c9.385-5.145 22.371-8.45 36.874-4.505-1.183.232-3.405 1.721-4.463.74-.947-.535-2.693-.318-1.922 1.14-.923.506-2.284-1.026-3.101.091-.289.558 1.244 1.376-.185 1.277-1.451.332-1.29-1.904-2.714-1.382-1.562-.112-.595-1.797.542-1.675.921-.007.908-.737-.03-.742-.744-.165-3.288-.849-2.058.637-.434.488-2.34.148-1.114 1.072.642 1.196-1.81.748-1.474-.283-1.007.189-1.581-.186-.837-.97-1.264-.083-2.532.34-3.813.277-1.59.268-3.006 1.19-4.631 1.4-2.224-.021.156 2.505-1.497 3.274-1.033.647-2.345.078-3.449.535-1.302.269-2.642.616-3.506 1.728-.803.617-3.017 1.32-2.494-.53.035-.562-.011-1.523-.126-2.083zm73.358 35.134c-1.023-6.128-3.349-11.937-5.729-15.945-.211-.747-1.772-.5-1.85.214-.286.669.789 1.271.327 1.811-.535.08-.894.472-.298.862.535.56 1.27.826 1.89 1.261.496.355.778 1.203-.062 1.299-.657.374-.405 1.381.296 1.532.577.31 1.354.21 1.796.752.425.712.025 1.611.445 2.333.415.734.277 1.589.441 2.384.151.904.258 1.909.976 2.558.421.534 1.165.674 1.769.939zm-4.849 30.465c1.044-.529-1.462 1.865-1.984 2.923-.358.726-.757 1.315-1.263 1.827-.612.619-.716.911-1.443 1.279-.909.46.059-1.338.18-1.461l1.443-1.461c.503-.509.815-1.103 1.082-1.644.377-.763 1.021-1.071 1.984-1.461zm-8.116 5.297c.324-.656-.795 1.316-1.443 1.644-.75.38-1.082.941-1.082-.548 0-.596.753-1.493 1.082-1.827.503-.509 1.089-.825 1.623-1.096.54-.274.044 1.258-.18 1.827zm3.607-3.288c.699-.354-.712 1.424-.902 2.192-.212.857-.913.913-1.804.913-.241 0-.821 1.42-1.263 1.644-1.064.539-1.266 1.089-.902 1.827.391.793 1.524-.63 1.623-.731.551-.558.618-1.174 1.082-1.644l1.443-1.461c.368-.372.585-1.455.721-2.009.058-.236 0-.487 0-.731zm-65.971 18.832c13.968 8.579 31.584 9.723 46.863 2.842-.999-.306-2.794-.874-4.169-.493-1.365.085-1.781 2.477-3.609 1.659-1.089-1.129-2.811-.469-3.968-1.23-.787.294-1.571 1.121-2.047.171-1.429.055-2.633 1.168-3.998.108-1.734-.771-2.056.769-1.032 1.302-1.484.336-3.218-.477-4.114-1.649.23-.896.3-2.437-1.058-1.871.046 1.216-1.172 1.837-1.774 2.277-1.197-1.577-2.44-.223-3.515.643-1.482.256-2.823-1.15-4.341-.416-1.059.431-2.042-.235-1.758-1.416-1.007-.062-3.374-.975-1.615-1.99-1.463-.359-3.093-.035-4.292-1.16-.537-.606-3.177-1.025-1.643.099 1.385.232 2.302 2.528.227 2.11-1.508.241-2.794-2.393-4.157-.983zm59.603-39.847c-.463-.117-1.107-.479-1.275-1.162-.131-.53.134-1.19.255-1.679.113-.459-.949.115-1.403 0-.607-.154-.508-.653-.765.387-.193.78.124 1.17-.128 1.679-.137.277-.958.582-1.148.775-.551.558-.141 1.019.128 1.292.027.027 1.219-.732 1.275-.775.543-.413.738-.333 1.02-.904.212-.429 1.251.879 1.275.904.541.548.765.494.765-.517z" color="#000" fill="#fbfbfc" fill-rule="evenodd" overflow="visible"/><path d="M77.985 11.377c.115-.4-1.11-1.339-1.722-1.292-.775.06-.116.807 0 .904 1.249 1.044 1.764.603 1.722.387z" color="#000" fill="#5f5e64" fill-rule="evenodd" overflow="visible"/><path d="M85.033 35.692c.042.169.878.706 1.082.913.186.189.693.488.992.639.335.17.577.401.812.639.32.324.496.609.721.913.187.252.18.773.18 1.187 0 .448-.361.543-.361 1.096l.721.091c.079.319.328.665.451.913.248.502-.008.733-.361.822-.361.091-.008.83-.271 1.096-.298.302-.467.365-.992.365-.699 0-.209.572 0 .731.319.242.361.602.361.822 0 .7-1.317-.555-1.353-.639-.226-.534-.807.448-.812.457-.264.535-.38-.327-.271-.548.084-.169 1.081-.137 1.262-.183.384-.097-.004-.829-.18-1.187-.108-.22.486-.151.721-.091.326.083.213-.673.451-.913.343-.348.229-.731-.271-.731-.578 0-.703-.109-.812-.548-.098-.397-.651-.279-.992-.365-.428-.108-.69-.196-.947-.457-.287-.291-.397-.421-.496-.822l-.271-1.187c-.136-.552-.095-.741-.271-1.096-.227-.459-.351-.466 0-.822.354-.358.423-.49.902-1.096z" color="#000" fill="#98989e" fill-rule="evenodd" overflow="visible"/><path d="M86.456 39.467c-.093.062-.237.01-.321-.116-.084-.126-.076-.279.017-.341s.237-.01.321.116c.084.126.076.279-.017.341z" color="#000" fill="#e7e6e8" fill-rule="evenodd" overflow="visible"/><path d="M48.644 84.336c.464 1.259-.393 2.645-1.914 3.097-1.521.451-3.129-.204-3.593-1.463-.464-1.259.393-2.645 1.914-3.097 1.521-.451 3.129.204 3.593 1.463z" opacity=".596" color="#000" fill="url(#r)" fill-rule="evenodd" overflow="visible"/><path d="M47.815 84.018c.372 1.022-.32 2.145-1.547 2.509-1.227.366-2.522-.167-2.896-1.189-.372-1.022.32-2.145 1.547-2.509 1.227-.366 2.522.167 2.896 1.189z" overflow="visible" opacity=".85" color="#000" fill="#fff" fill-rule="evenodd" stroke="url(#s)"/><g fill-rule="evenodd"><path d="M41.702 35.014c-.02-1.577.419-3.124.255-4.714-.155-1.727.439-3.467.077-5.173-.673-.581-.559 1.861-.587 2.477.353 1.409-.668 2.852-.01 4.123.433 1.206-.416 2.777-1.114 3.677-2 .107-.546-2.525-.194-3.51.028-1.754-.308-3.467-.796-5.143-.044-.825-1.066-3.32-.86-1.123-.136 1.545.508 2.966.661 4.474.007 1.549.117 3.164-.236 4.662-.843.494-3.435-.008-2.752-1.132 1.915-.027-1.912-2.458.498-2.674.897-.267 1.691.783 1.691-.764.809-2.222-1.817-1.54-2.789-.745-.173-.986-.081-3.067-.795-3.469-.954 1.335.544 2.73.195 4.155-.144.62.963 1.296-.259 1.176.2 1.116.142 2.17-1.17 2.508-.385 1.803-2.165.282-3.183-.031-.416-1.759-2.746-.365-3.562-1.798-.404-.582-1.355-.658-.375.054 1.192 1.213 3.198 1.384 4 3.023-1.384.27-2.598-1.129-3.927-1.51-.477-.5-3.285-.947-1.496-.138 1.559.945 3.316 1.577 4.732 2.755-.493.805-2.678-.181-3.755-.35-.455.215 1.827 1.168 2.511 1.295-.602.227-2.869 1.049-1.234 1.189 1.022.246 2.499-1.637 3.017-.643-.3.943-.013 1.682-.343 2.505.286.82 2.906 1.553.837 1.76-.857-.086-2.474.531-.771.834 1.16-.065 2.834-.051 3.671-.349-1.265.558-2.688.904-4.003 1.24-.796-.272-3.015-.942-3.121-.216.925 1.037 3.022.313 3.563 1.295-.994-.255-3.235-.75-2.465 1.066-.438.978-.633 1.908.477 2.505.108 1.529 2.655.286 2.067 1.829 1.237.339 2.571.594 2.944 2.148.391.549.231 2.438 1.237 1.223-.411-1.345-.457-2.768-1.195-4.006-.563-1.34.387 1.331.933 1.443.851 1.04 1.189-1.782 2.085-.338 1.419.41-1.273-1.899.528-2.04 1.764-.388 1.147 2.402 1.144 3.492.015.822-.028 1.954-1.089 1.058-1.428-.462-.411 1.232-1.18 1.746-.328 1.255.705 2.66 1.721 1.295.537 1.427 1.62 2.455 2.84 3.223.979.915 1.369 2.077.963 3.378.863.056 1.044-1.534 2.154-1.412.596-1.243-.01-3.188-1.263-3.678-.902-.945 1.673-.895 1.219-2.242.438-.714.075-3.243-.702-1.907.709.977-.246 2.376-.542.745.733-1.259-.458-1.866-1.054-2.603.392-1.839-1.297-3.126-.471-4.963.1-.65.98.908 1.676.527 1.388.28 2.815.191 4.219.324 2.14-.178-1.127-1.684-1.909-1.541-1.26.515-2.579.064-3.593-.753-1.863-1.084 1.255-1.628 2.085-.998 1.003.392 1.621 1.851 2.38 2.049.934-.86.397-2.609 1.735-2.908.006-.823-2.447-1.754-.349-1.922 1.548-1.081-1.416-1.213-2.068-1.671.202-.904 2.153-1.847.71-2.918-1.092-.037-.824-1.908-1.815-.721-1.754 1.156-.196-1.358-.39-1.715-.55-.3-.962.373-1.411.567z" fill="#a8a7aa" fill-opacity=".867"/><path d="M38.131 38.243c-.507-.71-.915-1.689-1.869-1.849-.629-.22-1.425-.106-1.617.641-.287.745 1.058.494 1.466.76.347.379.913.917.89 1.391-.645.321-1.33.635-2.069.603-.724.189-1.06-.588-1.311-1.12-.325-.681-1.042-1.154-1.091-1.959.034-.508-.358-1.709-.769-.715-.347.613.042 1.249.425 1.724.387.677-.9.577-.994 1.159-.33.739.304 1.595 1.069 1.63.397.065 1.785-.036 1.057.592-.412.068-.736.366-.118.452.626.309 1.967-.119 1.958.89-.553.53-1.421.826-1.601 1.663-.223.464-.34 1.555.482 1.151.435-.059.801-1.376.775-.381.043.664-.235 1.502.335 2.007.394.147 1.093-.734.899.165-.235.498-.001 1.027.584.673.829-.603.737 1.111 1.627.983.877.142.642-.904.203-1.259-.631-.125-.971-.656-.955-1.3-.194-.648-1.407.122-1.435-.743.09-.592.42-1.482-.501-1.514-.97-.319.455-.951.895-1.024.842-.173 1.794.302 2.554-.26.694-.362 1.327-.987 2.164-.921.601.271 1.285.23 1.871.507.428.357.743.937 1.362.972.4.124 1.316.302.83-.403-.254-.62-.883-.854-1.429-1.131-.347-.243-1.302-.848-.315-.802.697.194 1.214-.14 1.005-.905.177-.761-1.175-.851-1.134-.127-.11.63-.401 1.432-1.11 1.532-.764.05-1.547-.075-2.271-.316-.418-.319-1.109-1.294-.16-1.331.405-.12 1.359-.28.693-.826-.358-.531-1.2-.621-1.332-1.307.24-.706-.606-1.498-.903-.542-.135.397-.156.822-.159 1.238z" color="#000" fill="#b9b8ba" overflow="visible"/><path d="M38.258 39.922c.025-.196-.2-.256-.348-.2-.481.114-.911.408-1.409.458-.311-.018-.571.214-.709.477-.14.269-.251.569-.246.877.004.269.215.48.453.569.327.126.674.19 1.011.279.528.123 1.078.157 1.615.091.274-.033.536-.181.677-.426.182-.276.296-.631.178-.956-.084-.248-.235-.465-.355-.695-.214-.231-.525-.33-.806-.45l-.06-.024z" color="#000" fill="#e5e5e6" overflow="visible"/><path d="M26.78 39.664c-.742-1.925-3.025-2.642-1.403-5.037-3.461-.545-.292-2.825-2.483-4.779 1.813-.01 2.826 2.048 1.797-.903 1.064-2.639 2.603.934 4.398-1.256 3.491-1.027.715-3.249-1.544-1.715-1.719.851-4.692-.87-1.148-1.033 4.411-1.194-.715-2.903-2.738-2.621-2.435-.008 1.423-5.84-1.57-3.218 1.049 4.679-6.224 1.981-5.768 4.031 2.393 1.249-3.979 2.916-4.719 5.037-1.557 1.465-4.209 4.206-.638 1.55 3.089-.927 7.335-7.404 9.673-4.088-1.595 2.607-3.146 5.433-6.34 3.005-2.039 1.59 4.249 1.491 1.372 4.24-.251 3.772 2.583-3.36 2.154 1.045.797-3.324 1.013-.702 1.993-.291 3.64-2.18 1.117 2.143-.934 2.835-4.572 2.477 4.723 3.289.62 5.264-.468 1.34-8.703-.158-3.691 1.164 2.481-.307 4.593.5 1.023 1.095-2.784 3.789 3.469-1.003 3.468 1.954.271 2.194 3.929 3.445 2.276.044.624-3.302 1.792 1.185 1.71 1.264 1.088-2.28 2.87-4.854 2.49-7.586z" color="#000" fill="#a8a7aa" fill-opacity=".867" overflow="visible"/><path d="M26.27 41.085c-.371.115-.738.425-1.142.303-.391-.137-.064-.744-.468-.808-.39-.122-.716-.483-.686-.916.004-.323.014-.928-.459-.862-.351.015-.842.159-.738.62.018.37.227.719.181 1.091-.257.337-.726-.381-.933.076-.162.29-.315.714-.724.657l-.667-.078c.235.284.513.531.779.782.096.444-.524.396-.806.476-.47.095-.959.035-1.424.154-.37.062-.117.335.125.296.744.074 1.483-.091 2.203-.252.39.132.325.663.424.995.021.234.171.525.236.682-.055-.436.681-.336.766-.005.044.21.249.444.305.099.089-.247.145-.933.525-.619.232.214.252.582.426.805.231-.246.262-.623.38-.934.081-.367.528-.355.819-.328.318-.013.732.189.992.026-.231-.336-.622-.519-.924-.785-.165-.102-.296-.247-.005-.221.496-.054 1.007-.065 1.496-.102-.479-.146-.984-.208-1.481-.256.096-.309.43-.508.647-.747l.152-.148z" color="#000" fill="#b9b8ba" overflow="visible"/><path d="M20.531 28.427c-.676-.076-1.094.021-1.403.646-.015.031-1.05.676-1.148.775-.657.666.313.071.51-.129.262-.265 1.297-.129 1.785-.129.633 0 .46-.645.255-1.162z" color="#000" fill="#f3f3f4" overflow="visible"/><path d="M20.659 26.877c.174 0 .499 1.192-.638.904-.459-.116-.016-1.258 0-1.292.111-.225.425.258.638.387zm3.061 14.724c.028-.056-1.31.904.128.904.588 0 .06-.588-.128-.904z" color="#000" fill="#e5e5e6" overflow="visible"/></g></svg>